<svg xmlns="http://www.w3.org/2000/svg" xmlns:xlink="http://www.w3.org/1999/xlink" width="2000" zoomAndPan="magnify" viewBox="0 0 1500 1499.999933" height="2000" preserveAspectRatio="xMidYMid meet" version="1.0"><path fill="#017938" d="M 387.5 231.25 C 444.414062 231.1875 501.332031 231.125 558.246094 231.089844 L 560.800781 231.089844 C 588.117188 231.070312 615.449219 231.054688 642.800781 231.042969 L 645.515625 231.042969 C 674.476562 231.027344 703.433594 231 732.394531 230.964844 C 766.394531 230.921875 800.398438 230.898438 834.398438 230.894531 L 836.914062 230.894531 C 851.035156 230.886719 865.160156 230.867188 879.285156 230.84375 C 891.871094 230.824219 904.457031 230.820312 917.046875 230.824219 C 924.296875 230.824219 931.546875 230.824219 938.800781 230.800781 C 945.460938 230.785156 952.117188 230.785156 958.777344 230.796875 C 961.167969 230.796875 963.558594 230.792969 965.945312 230.78125 C 988.539062 230.675781 1011.511719 232.214844 1033.125 239.21875 L 1036.898438 240.386719 C 1039.34375 241.144531 1041.78125 241.917969 1044.21875 242.699219 C 1047.085938 243.613281 1049.964844 244.5 1052.851562 245.355469 C 1064.667969 249.019531 1075.398438 254.144531 1086.25 260 L 1088.609375 261.265625 C 1097.707031 266.1875 1106.285156 271.574219 1114.554688 277.804688 C 1117.003906 279.625 1119.523438 281.347656 1122.109375 282.96875 L 1125 285 L 1125 287.5 L 1127.203125 288.496094 C 1130.136719 290.074219 1132.296875 291.828125 1134.765625 294.0625 C 1137.933594 296.917969 1141.164062 299.707031 1144.453125 302.421875 C 1149.328125 306.605469 1153.378906 311.339844 1157.5 316.25 L 1160.390625 319.566406 C 1187.675781 351.328125 1207.789062 390.535156 1215.816406 431.679688 C 1216.230469 433.976562 1216.628906 436.277344 1217.007812 438.578125 C 1217.476562 441.46875 1217.476562 441.46875 1218.75 445 C 1218.972656 447.496094 1219.148438 449.996094 1219.296875 452.5 C 1219.644531 457.636719 1220.1875 462.480469 1221.328125 467.5 C 1227.59375 500.390625 1219.566406 538.789062 1208.75 570 C 1207.574219 573.117188 1206.34375 576.214844 1205.058594 579.292969 C 1204.136719 581.554688 1203.265625 583.835938 1202.441406 586.136719 C 1189.109375 622.984375 1163.035156 656.796875 1133.203125 681.953125 L 1131.128906 683.726562 C 1126.773438 687.414062 1122.273438 690.613281 1117.5 693.75 C 1114.578125 696.054688 1111.679688 698.390625 1108.8125 700.761719 L 1106.25 702.5 L 1102.5 702.5 L 1102.5 705 L 1093.75 707.5 L 1093.75 710 C 1069.667969 724.164062 1038.628906 737.769531 1010.398438 738.941406 L 1007.5 738.75 L 1009.296875 741.640625 C 1011.25 745 1011.25 745 1012.5 748.75 L 1014.605469 749.730469 C 1018.992188 752.03125 1021.8125 755.628906 1025.078125 759.296875 L 1029.027344 763.667969 L 1030.777344 765.621094 C 1032.515625 767.5625 1032.515625 767.5625 1034.59375 769.457031 L 1036.25 771.25 L 1036.25 773.75 L 1038.492188 774.710938 C 1041.554688 776.421875 1043.167969 778.164062 1045.390625 780.859375 C 1048.269531 784.265625 1051.1875 787.507812 1054.375 790.625 C 1058.242188 794.421875 1061.777344 798.433594 1065.3125 802.539062 C 1067.421875 804.914062 1069.609375 807.152344 1071.875 809.375 C 1075.742188 813.171875 1079.277344 817.183594 1082.8125 821.289062 C 1084.921875 823.664062 1087.109375 825.902344 1089.375 828.125 C 1092.347656 831.046875 1095.183594 834.09375 1097.890625 837.265625 C 1101.34375 841.277344 1104.980469 845.027344 1108.75 848.75 C 1113.230469 853.175781 1117.511719 857.789062 1121.601562 862.578125 C 1123.9375 865.214844 1126.394531 867.683594 1128.90625 870.15625 C 1132.890625 874.09375 1136.601562 878.039062 1140 882.5 L 1140 885 L 1142.238281 885.988281 C 1145.167969 887.59375 1146.9375 889.230469 1149.195312 891.679688 L 1151.535156 894.195312 L 1153.984375 896.875 L 1156.527344 899.621094 C 1161.820312 905.34375 1167.058594 911.113281 1172.242188 916.933594 C 1174.382812 919.3125 1176.546875 921.667969 1178.734375 924.003906 L 1180.667969 926.078125 C 1181.917969 927.417969 1183.171875 928.753906 1184.433594 930.082031 C 1185.917969 931.679688 1187.339844 933.335938 1188.75 935 L 1188.75 937.5 L 1192.5 938.75 C 1195.234375 941.796875 1195.234375 941.796875 1197.5 945 L 1197.5 947.5 C 1179.976562 947.824219 1162.449219 948.0625 1144.917969 948.210938 C 1136.777344 948.285156 1128.640625 948.382812 1120.5 948.539062 C 1112.636719 948.6875 1104.777344 948.769531 1096.914062 948.804688 C 1093.921875 948.828125 1090.929688 948.878906 1087.9375 948.953125 C 1065.128906 949.5 1065.128906 949.5 1058.667969 946.167969 C 1053.976562 942.730469 1050.769531 938.550781 1047.5 933.75 C 1045.980469 931.988281 1044.433594 930.25 1042.867188 928.53125 L 1040.8125 926.128906 C 1037.058594 921.796875 1033.085938 917.671875 1029.140625 913.515625 C 1017.703125 901.414062 1006.421875 889.175781 995.175781 876.894531 C 990.984375 872.324219 986.785156 867.757812 982.578125 863.203125 L 980.703125 861.171875 C 977.480469 857.679688 974.253906 854.195312 971.023438 850.710938 C 963.574219 842.667969 956.230469 834.550781 949.085938 826.230469 C 944.886719 821.375 940.496094 816.699219 935.914062 812.203125 C 933.757812 810.007812 931.761719 807.730469 929.765625 805.390625 C 925.878906 800.875 921.738281 796.683594 917.5 792.5 C 912.730469 787.78125 908.144531 783.011719 903.792969 777.898438 C 899.40625 772.898438 894.816406 768.085938 890.261719 763.238281 C 885.25 757.902344 880.351562 752.464844 875.566406 746.925781 C 873.824219 744.859375 873.824219 744.859375 871.25 743.75 C 869.515625 743.636719 867.777344 743.585938 866.042969 743.589844 L 862.714844 743.578125 L 859.035156 743.585938 L 855.144531 743.578125 C 850.8125 743.570312 846.484375 743.570312 842.152344 743.574219 L 832.871094 743.558594 C 826.195312 743.550781 819.515625 743.542969 812.835938 743.539062 C 802.273438 743.53125 791.710938 743.511719 781.148438 743.488281 L 770.304688 743.464844 L 767.566406 743.457031 C 756.328125 743.4375 745.089844 743.414062 733.847656 743.390625 C 718.625 743.363281 703.402344 743.347656 688.179688 743.339844 C 672.542969 743.332031 656.910156 743.300781 641.273438 743.257812 C 631.636719 743.226562 621.996094 743.21875 612.355469 743.222656 C 604.957031 743.230469 597.558594 743.207031 590.160156 743.175781 C 587.132812 743.167969 584.101562 743.167969 581.074219 743.175781 C 576.929688 743.1875 572.789062 743.167969 568.640625 743.140625 L 565.039062 743.171875 C 554.945312 743.050781 546.402344 740.183594 537.480469 735.539062 C 528.890625 729.558594 523.1875 722.855469 518.632812 713.417969 C 515.066406 703.710938 515.191406 692.683594 516.25 682.5 C 518.042969 673.699219 521.941406 666.84375 527.683594 660 C 534.890625 652.21875 542.328125 647.382812 552.246094 643.703125 C 559.429688 641.695312 566.886719 642.152344 574.28125 642.175781 L 579.429688 642.164062 C 584.140625 642.152344 588.84375 642.152344 593.550781 642.160156 C 598.632812 642.164062 603.714844 642.152344 608.796875 642.140625 C 617.601562 642.128906 626.40625 642.121094 635.210938 642.117188 C 647.96875 642.117188 660.730469 642.097656 673.488281 642.074219 C 695.476562 642.03125 717.46875 642 739.457031 641.980469 C 758.285156 641.972656 777.109375 641.957031 795.933594 641.929688 C 797.171875 641.929688 798.402344 641.929688 799.675781 641.925781 C 820.316406 641.910156 840.957031 641.878906 861.597656 641.835938 C 874.308594 641.8125 887.019531 641.800781 899.730469 641.800781 C 908.457031 641.800781 917.1875 641.792969 925.917969 641.769531 C 930.941406 641.757812 935.964844 641.75 940.984375 641.761719 C 978.359375 641.933594 978.359375 641.933594 1014.609375 633.59375 L 1017.871094 632.460938 C 1044.589844 622.832031 1066.890625 606.191406 1085.699219 585 C 1100.574219 566.722656 1110.816406 545.355469 1116.25 522.5 L 1116.871094 519.9375 C 1122.945312 493.855469 1121.15625 466.996094 1113.492188 441.480469 C 1107.421875 422.453125 1098.363281 404.941406 1085 390 L 1082.363281 386.914062 C 1064.285156 366.140625 1041.667969 350.148438 1015.511719 341.140625 C 990.796875 333.078125 966.011719 331.761719 940.207031 331.816406 C 936.804688 331.808594 933.402344 331.792969 930 331.777344 C 922.730469 331.75 915.464844 331.738281 908.199219 331.738281 C 897.695312 331.742188 887.1875 331.714844 876.683594 331.683594 C 859.632812 331.636719 842.578125 331.601562 825.523438 331.589844 C 808.980469 331.574219 792.433594 331.546875 775.890625 331.511719 L 772.789062 331.503906 L 757.386719 331.464844 C 714.921875 331.359375 672.460938 331.292969 630 331.25 C 632.929688 336.335938 636.078125 340.050781 640.3125 344.140625 C 645.15625 348.878906 649.808594 353.691406 654.203125 358.851562 C 655.6875 360.589844 657.199219 362.300781 658.726562 364 C 659.9375 365.34375 659.9375 365.34375 661.171875 366.71875 L 663.394531 369.167969 L 665 371.25 L 665 373.75 L 667.242188 374.757812 C 676.824219 379.945312 684.21875 390.964844 691.015625 399.296875 C 693.425781 402.539062 693.425781 402.539062 696.25 403.75 L 696.25 406.25 C 677.722656 406.542969 659.199219 406.761719 640.671875 406.898438 C 632.066406 406.960938 623.460938 407.050781 614.859375 407.191406 C 606.550781 407.332031 598.246094 407.402344 589.9375 407.4375 C 586.773438 407.457031 583.609375 407.503906 580.445312 407.570312 C 556.296875 408.066406 556.296875 408.066406 549.964844 405.039062 C 545.625 401.984375 542.792969 398.191406 540 393.75 C 538.699219 392.191406 537.371094 390.65625 536.015625 389.140625 L 533.96875 386.742188 C 530.085938 382.46875 525.976562 378.4375 521.875 374.375 C 516.363281 368.917969 511.003906 363.457031 506 357.523438 C 502.890625 354.039062 499.574219 350.78125 496.25 347.5 C 491.398438 342.703125 486.730469 337.851562 482.300781 332.660156 C 475.019531 324.238281 467.433594 316.074219 459.488281 308.277344 C 457.390625 306.140625 455.457031 303.917969 453.515625 301.640625 C 446.351562 293.324219 438.335938 285.773438 430.527344 278.070312 C 427.488281 274.992188 424.601562 271.816406 421.71875 268.59375 C 414.070312 260.109375 405.921875 252.132812 397.75 244.15625 L 394.710938 241.164062 C 393.804688 240.273438 392.898438 239.386719 391.960938 238.476562 L 390 236.25 L 390 233.75 L 387.5 233.75 Z M 387.5 231.25 " fill-opacity="1" fill-rule="nonzero"/><path fill="#010001" d="M 592.738281 437.15625 C 597.734375 437.15625 602.730469 437.144531 607.730469 437.136719 C 617.476562 437.121094 627.21875 437.117188 636.964844 437.121094 C 644.886719 437.125 652.8125 437.121094 660.734375 437.117188 L 664.167969 437.113281 L 671.078125 437.109375 C 692.59375 437.097656 714.109375 437.097656 735.625 437.105469 C 755.28125 437.113281 774.941406 437.097656 794.597656 437.074219 C 814.839844 437.050781 835.078125 437.039062 855.316406 437.046875 C 866.660156 437.050781 878 437.042969 889.34375 437.027344 C 898.984375 437.011719 908.628906 437.011719 918.269531 437.023438 C 923.183594 437.035156 928.097656 437.03125 933.011719 437.019531 C 937.515625 437.007812 942.023438 437.011719 946.527344 437.027344 C 948.910156 437.03125 951.292969 437.019531 953.675781 437.003906 C 964.828125 437.074219 975.28125 438.449219 985.457031 443.222656 C 996.757812 450.753906 1002.429688 457.914062 1008.5 470.042969 C 1011.726562 478.019531 1012.007812 486.507812 1011.25 495 C 1009.339844 504.667969 1006.277344 512.609375 999.792969 520.09375 L 997.5 522.5 L 995.515625 524.632812 C 988.878906 531.03125 980.191406 534.292969 971.472656 536.941406 C 968.171875 537.617188 965.105469 537.660156 961.730469 537.664062 L 957.375 537.675781 L 952.582031 537.671875 L 947.496094 537.683594 C 942.832031 537.691406 938.167969 537.695312 933.5 537.695312 C 928.472656 537.699219 923.441406 537.707031 918.410156 537.714844 C 909.6875 537.730469 900.96875 537.742188 892.246094 537.75 C 878.445312 537.761719 864.644531 537.789062 850.847656 537.816406 L 836.675781 537.84375 L 833.097656 537.851562 C 818.410156 537.878906 803.722656 537.902344 789.042969 537.929688 C 769.160156 537.960938 749.28125 537.984375 729.394531 538.003906 C 708.96875 538.027344 688.539062 538.0625 668.109375 538.109375 C 655.519531 538.140625 642.929688 538.15625 630.339844 538.160156 C 621.695312 538.164062 613.054688 538.179688 604.410156 538.207031 C 599.433594 538.222656 594.457031 538.230469 589.480469 538.222656 C 565.769531 538.191406 543.292969 538.570312 520.625 546.40625 L 517.3125 547.539062 C 490.53125 557.042969 467.121094 574.082031 448.65625 595.644531 C 432.25 616.808594 419.738281 642.488281 415.636719 669.0625 C 412.933594 690.875 414.410156 712.558594 420 733.75 L 421.09375 738.195312 C 427.820312 762.761719 442.828125 784.820312 460.15625 803.125 C 476.808594 819.257812 496.980469 830.707031 518.671875 838.59375 L 521.464844 839.632812 C 542.667969 846.898438 564.417969 846.75 586.558594 846.550781 C 590.925781 846.515625 595.296875 846.507812 599.664062 846.492188 C 607.210938 846.464844 614.757812 846.425781 622.300781 846.382812 C 634.242188 846.3125 646.183594 846.285156 658.128906 846.269531 L 673.527344 846.246094 C 685.136719 846.226562 696.75 846.203125 708.363281 846.171875 L 711.574219 846.167969 C 728.769531 846.121094 745.96875 846.03125 763.164062 845.925781 C 780.871094 845.820312 798.578125 845.773438 816.285156 845.789062 C 827.179688 845.792969 838.074219 845.746094 848.972656 845.636719 C 856.4375 845.5625 863.898438 845.550781 871.367188 845.585938 C 875.667969 845.605469 879.960938 845.597656 884.261719 845.515625 C 909.355469 845.125 909.355469 845.125 916.703125 849.097656 C 922.214844 853.222656 926.078125 858.144531 930 863.75 C 931.589844 865.59375 933.203125 867.417969 934.84375 869.21875 L 936.824219 871.550781 C 939.472656 874.574219 942.332031 877.347656 945.199219 880.160156 C 947.414062 882.414062 949.488281 884.734375 951.546875 887.132812 C 956.183594 892.464844 960.996094 897.609375 965.859375 902.734375 L 971.140625 908.328125 L 973.753906 911.101562 C 982.070312 919.933594 990.347656 928.808594 998.246094 938.015625 C 999.984375 940.058594 999.984375 940.058594 1002.105469 941.90625 L 1003.75 943.75 L 1003.75 947.5 C 937.214844 947.570312 870.6875 947.617188 804.164062 947.636719 C 781.996094 947.652344 759.828125 947.667969 737.664062 947.691406 C 714.902344 947.714844 692.144531 947.730469 669.386719 947.734375 C 655.351562 947.738281 641.316406 947.75 627.285156 947.769531 C 617.648438 947.78125 608.015625 947.785156 598.382812 947.785156 C 592.828125 947.78125 587.277344 947.785156 581.726562 947.796875 C 576.632812 947.808594 571.535156 947.8125 566.4375 947.800781 C 564.609375 947.800781 562.777344 947.804688 560.949219 947.8125 C 543.710938 947.882812 526.953125 946.136719 510.15625 942.1875 L 506.640625 941.367188 C 460.894531 930.386719 421.515625 907.382812 387.453125 875.269531 C 355.410156 844.492188 333.679688 806.019531 321.007812 763.582031 C 318.476562 754.574219 316.640625 745.457031 315 736.25 L 314.195312 732.066406 C 306.632812 690.777344 312.355469 646.847656 326.25 607.5 C 328.851562 600.683594 331.863281 594.082031 335 587.5 L 337.058594 583.074219 C 355.074219 545.613281 382.769531 512.109375 416.25 487.5 C 417.574219 486.523438 418.898438 485.546875 420.261719 484.542969 C 430.566406 477.191406 441.363281 470.984375 452.5 465 L 456.269531 462.933594 C 499.113281 440.375 545.316406 437.097656 592.738281 437.15625 " fill-opacity="1" fill-rule="nonzero"/><path fill="#017938" d="M 205 997.5 C 213.671875 997.40625 222.34375 997.335938 231.015625 997.292969 C 233.964844 997.273438 236.910156 997.25 239.855469 997.21875 C 244.105469 997.171875 248.355469 997.148438 252.609375 997.132812 C 253.910156 997.113281 255.210938 997.097656 256.554688 997.074219 C 266.527344 997.074219 275.125 998.667969 283.984375 1003.359375 C 288.601562 1007.152344 292.691406 1011.449219 296.25 1016.25 C 298.957031 1024.375 298.375 1034.300781 296.734375 1042.644531 C 294.375 1049.980469 290.765625 1055.660156 285.464844 1061.230469 C 280.414062 1065.523438 274.730469 1068.449219 268.75 1071.25 C 269.542969 1074.664062 270.582031 1078 271.859375 1081.265625 L 272.96875 1084.121094 L 274.140625 1087.109375 L 275.328125 1090.167969 C 277.355469 1095.335938 279.453125 1100.433594 281.796875 1105.46875 C 283.75 1110 283.75 1110 283.75 1115 C 276.9375 1115.941406 270.15625 1116.476562 263.28125 1116.71875 L 258.796875 1116.902344 L 255 1116.25 C 251.921875 1111.933594 250.042969 1107.296875 248.148438 1102.367188 L 246.476562 1098.019531 L 244.765625 1093.515625 L 243.011719 1088.96875 C 238.75 1077.828125 238.75 1077.828125 238.75 1075 L 217.5 1075 L 217.03125 1080.347656 C 216.300781 1087.621094 215.082031 1094.765625 213.75 1101.953125 L 213.074219 1105.726562 L 212.421875 1109.300781 L 211.832031 1112.53125 L 211.25 1115 L 210 1116.25 C 208.167969 1116.375 206.332031 1116.414062 204.496094 1116.417969 L 201.125 1116.421875 L 197.578125 1116.40625 L 194.046875 1116.421875 L 190.671875 1116.417969 L 187.558594 1116.410156 C 185 1116.25 185 1116.25 182.5 1115 C 184.277344 1100.105469 186.890625 1085.433594 189.6875 1070.703125 L 191.023438 1063.609375 C 191.695312 1060.03125 192.371094 1056.453125 193.046875 1052.875 C 194.46875 1045.347656 195.863281 1037.8125 197.234375 1030.273438 L 198.746094 1022.042969 C 199.058594 1020.328125 199.371094 1018.617188 199.675781 1016.902344 C 200.101562 1014.550781 200.535156 1012.199219 200.964844 1009.847656 L 201.6875 1005.886719 C 202.445312 1002.730469 203.503906 1000.355469 205 997.5 M 462.5 997.5 C 467.882812 997.183594 473.28125 997.269531 478.671875 997.265625 L 483.289062 997.21875 L 487.691406 997.210938 L 491.753906 997.195312 L 495 997.5 L 497.5 1000 C 498.238281 1003.054688 498.238281 1003.054688 498.847656 1006.945312 L 499.5625 1011.332031 L 500.3125 1016.09375 C 503.15625 1033.386719 506.671875 1050.457031 510.453125 1067.570312 C 511.402344 1071.945312 512.285156 1076.328125 513.148438 1080.722656 C 513.78125 1083.890625 514.425781 1087.054688 515.085938 1090.21875 L 516.40625 1096.640625 L 517.09375 1099.921875 C 518.132812 1105.015625 519.074219 1109.773438 518.75 1115 C 509.613281 1115.988281 500.445312 1116.800781 491.25 1116.25 L 488.75 1115 L 485 1096.25 L 436.25 1095 L 433.75 1101.25 C 432.570312 1103.4375 431.347656 1105.597656 430.078125 1107.734375 L 428.167969 1110.992188 C 426.25 1113.75 426.25 1113.75 422.5 1116.25 C 419.550781 1116.535156 419.550781 1116.535156 416.117188 1116.492188 L 412.394531 1116.46875 L 408.515625 1116.40625 L 404.589844 1116.371094 C 401.394531 1116.34375 398.199219 1116.300781 395 1116.25 C 395.734375 1111.332031 397.226562 1107.835938 399.761719 1103.574219 L 401.945312 1099.867188 L 404.296875 1095.9375 L 406.714844 1091.847656 C 409.050781 1087.894531 411.402344 1083.949219 413.75 1080 C 415.8125 1076.511719 417.867188 1073.023438 419.921875 1069.53125 L 421.382812 1067.054688 C 426.105469 1059.03125 430.746094 1050.960938 435.390625 1042.890625 C 441.617188 1032.078125 447.878906 1021.292969 454.21875 1010.546875 L 456.316406 1006.984375 L 458.234375 1003.746094 L 459.914062 1000.898438 C 461.25 998.75 461.25 998.75 462.5 997.5 " fill-opacity="1" fill-rule="nonzero"/><path fill="#010001" d="M 1071.25 997.5 C 1072.996094 997.371094 1074.742188 997.304688 1076.492188 997.296875 L 1079.871094 997.261719 L 1083.554688 997.246094 L 1087.335938 997.226562 C 1089.988281 997.214844 1092.640625 997.203125 1095.292969 997.199219 C 1099.324219 997.1875 1103.351562 997.148438 1107.382812 997.109375 C 1109.960938 997.101562 1112.539062 997.09375 1115.117188 997.089844 L 1118.742188 997.042969 C 1128.183594 997.074219 1135.804688 998.910156 1144.0625 1003.515625 C 1148.988281 1007.433594 1152.617188 1011.433594 1155.390625 1017.109375 C 1157.085938 1025.289062 1156.96875 1033.296875 1154.921875 1041.40625 C 1152.574219 1048.277344 1148.855469 1053.617188 1143.75 1058.75 C 1138.257812 1063.140625 1132.777344 1066.191406 1126.25 1068.75 L 1127.296875 1071.148438 C 1130.617188 1078.757812 1133.925781 1086.367188 1137.222656 1093.984375 C 1138.476562 1096.867188 1139.738281 1099.746094 1141.015625 1102.617188 L 1142.734375 1106.5625 L 1144.195312 1109.863281 L 1145 1112.5 L 1143.75 1116.25 L 1123.75 1116.25 C 1119.066406 1107.328125 1115.320312 1098.09375 1111.5625 1088.75 L 1109.644531 1084.007812 C 1108.09375 1080.171875 1106.542969 1076.335938 1105 1072.5 L 1077.5 1071.25 L 1076.5625 1077.65625 C 1075.300781 1085.855469 1073.882812 1094.023438 1072.421875 1102.1875 L 1071.761719 1105.933594 L 1071.128906 1109.433594 L 1070.5625 1112.589844 L 1070 1115 L 1068.75 1116.25 C 1065.585938 1116.339844 1062.457031 1116.363281 1059.296875 1116.328125 L 1056.605469 1116.3125 C 1054.402344 1116.292969 1052.203125 1116.273438 1050 1116.25 L 1048.75 1113.75 C 1049.070312 1110.925781 1049.070312 1110.925781 1049.75 1107.351562 L 1050.511719 1103.277344 L 1051.371094 1098.824219 L 1052.242188 1094.203125 C 1053.019531 1090.085938 1053.804688 1085.964844 1054.589844 1081.847656 C 1055.398438 1077.617188 1056.199219 1073.386719 1056.996094 1069.152344 L 1057.949219 1064.097656 L 1058.425781 1061.578125 L 1059.851562 1054.046875 C 1061.621094 1044.695312 1063.363281 1035.339844 1065.042969 1025.972656 L 1065.582031 1022.972656 C 1066.21875 1019.402344 1066.855469 1015.835938 1067.484375 1012.265625 C 1067.894531 1009.945312 1068.304688 1007.625 1068.722656 1005.300781 L 1069.386719 1001.507812 L 1070 998.75 Z M 1071.25 997.5 " fill-opacity="1" fill-rule="nonzero"/><path fill="#017938" d="M 325 997.5 C 327.53125 997.390625 330.066406 997.34375 332.601562 997.355469 L 337.53125 997.355469 L 342.894531 997.378906 L 348.355469 997.382812 C 353.152344 997.386719 357.953125 997.398438 362.75 997.414062 C 367.644531 997.425781 372.535156 997.433594 377.429688 997.4375 C 387.035156 997.453125 396.640625 997.472656 406.25 997.5 C 407.902344 1002.457031 406.777344 1006.425781 405.78125 1011.40625 L 405.253906 1014.214844 C 404.789062 1016.566406 404.289062 1018.914062 403.75 1021.25 L 402.5 1022.5 C 400.8125 1022.652344 399.117188 1022.722656 397.425781 1022.757812 L 394.164062 1022.832031 L 390.621094 1022.894531 L 387.011719 1022.972656 C 383.1875 1023.054688 379.367188 1023.132812 375.546875 1023.203125 L 367.796875 1023.367188 C 361.449219 1023.5 355.097656 1023.628906 348.75 1023.75 L 345 1043.75 L 352.808594 1043.433594 C 355.339844 1043.335938 357.871094 1043.242188 360.402344 1043.148438 C 362.144531 1043.082031 363.886719 1043.011719 365.628906 1042.941406 C 375.121094 1042.546875 384.328125 1042.339844 393.75 1043.75 C 393.15625 1047.476562 392.558594 1051.199219 391.953125 1054.921875 L 391.441406 1058.140625 L 390.941406 1061.203125 L 390.484375 1064.042969 L 390 1066.25 L 388.75 1067.5 C 385.144531 1067.699219 381.570312 1067.824219 377.964844 1067.894531 L 374.691406 1067.972656 C 371.226562 1068.054688 367.761719 1068.132812 364.296875 1068.203125 L 357.265625 1068.367188 C 351.511719 1068.5 345.753906 1068.625 340 1068.75 L 336.25 1091.25 L 391.25 1091.25 C 388.75 1108.75 388.75 1108.75 386.25 1116.25 L 303.75 1116.25 C 302.640625 1110.695312 302.457031 1108.675781 303.535156 1103.460938 L 304.359375 1099.347656 L 305.3125 1094.765625 C 306.003906 1091.332031 306.691406 1087.902344 307.378906 1084.46875 L 307.96875 1081.53125 C 309.894531 1071.902344 311.710938 1062.253906 313.519531 1052.601562 L 314.453125 1047.652344 C 315.707031 1040.976562 316.957031 1034.300781 318.203125 1027.625 C 319.09375 1022.871094 319.988281 1018.121094 320.882812 1013.367188 L 321.703125 1008.957031 L 322.464844 1004.929688 L 323.128906 1001.390625 L 323.75 998.75 Z M 817.5 997.5 C 820.070312 997.382812 822.640625 997.355469 825.214844 997.355469 L 827.652344 997.355469 C 830.324219 997.355469 832.996094 997.367188 835.667969 997.378906 L 841.210938 997.382812 C 846.085938 997.386719 850.957031 997.398438 855.828125 997.414062 C 860.796875 997.425781 865.765625 997.433594 870.734375 997.4375 C 880.488281 997.453125 890.246094 997.472656 900 997.5 C 899.640625 1000.027344 899.277344 1002.550781 898.90625 1005.078125 L 898.292969 1009.339844 C 897.492188 1013.792969 896.242188 1018.152344 895 1022.5 L 840 1022.5 L 838.75 1033.75 C 838.347656 1036.667969 837.929688 1039.585938 837.5 1042.5 L 841.707031 1042.480469 C 846.84375 1042.457031 851.984375 1042.441406 857.121094 1042.429688 C 859.347656 1042.425781 861.574219 1042.414062 863.800781 1042.40625 C 866.996094 1042.390625 870.191406 1042.382812 873.386719 1042.378906 L 876.414062 1042.359375 C 883.464844 1042.359375 883.464844 1042.359375 886.25 1043.75 C 885.65625 1047.476562 885.058594 1051.199219 884.453125 1054.921875 L 883.941406 1058.140625 L 883.441406 1061.203125 L 882.984375 1064.042969 L 882.5 1066.25 L 881.25 1067.5 C 877.5625 1067.605469 873.878906 1067.648438 870.191406 1067.621094 L 866.832031 1067.617188 C 863.277344 1067.609375 859.726562 1067.59375 856.171875 1067.578125 C 853.769531 1067.570312 851.363281 1067.566406 848.960938 1067.5625 C 843.058594 1067.546875 837.152344 1067.527344 831.25 1067.5 C 831.136719 1068.679688 831.136719 1068.679688 831.019531 1069.882812 L 830.703125 1073.125 C 830.601562 1074.167969 830.5 1075.210938 830.394531 1076.289062 C 829.90625 1080.867188 829.320312 1085.433594 828.75 1090 L 885 1091.25 L 882.5 1101.25 C 882.207031 1103.273438 881.972656 1105.304688 881.796875 1107.34375 C 881.539062 1110.386719 881.371094 1112.253906 880 1115 L 795 1115 C 795.769531 1108.839844 796.566406 1102.882812 797.691406 1096.800781 L 798.550781 1092.121094 L 799.476562 1087.128906 L 800.445312 1081.886719 C 801.121094 1078.226562 801.796875 1074.566406 802.480469 1070.90625 C 803.332031 1066.292969 804.1875 1061.679688 805.039062 1057.0625 C 808.011719 1040.941406 810.988281 1024.816406 814.15625 1008.730469 L 814.753906 1005.632812 C 815.214844 1003.328125 815.726562 1001.039062 816.25 998.75 Z M 817.5 997.5 " fill-opacity="1" fill-rule="nonzero"/><path fill="#017837" d="M 131.171875 996.015625 L 133.738281 995.96875 C 139.582031 995.953125 144.464844 996.925781 150 998.75 L 153.148438 999.691406 C 163.070312 1003.191406 170.007812 1009.390625 176.9375 1017.175781 C 178.359375 1019.0625 178.359375 1019.0625 180 1022.5 C 180.003906 1025.503906 180.003906 1025.503906 178.75 1028.75 C 175.917969 1030.875 173.398438 1032.492188 170.3125 1034.140625 L 167.957031 1035.5 C 164.636719 1037.339844 161.605469 1038.683594 157.859375 1039.375 L 155 1038.75 C 152.511719 1036.421875 152.511719 1036.421875 150.15625 1033.359375 C 147.164062 1029.828125 144.933594 1027.457031 141.015625 1024.921875 C 133.117188 1022.980469 124.972656 1022.636719 116.992188 1024.421875 C 109.957031 1026.886719 104.339844 1030.574219 99.21875 1035.9375 C 94.828125 1041.515625 91.347656 1047.996094 90 1055 C 89.300781 1062.113281 88.742188 1069.199219 91.324219 1075.972656 C 93.777344 1079.96875 96.191406 1082.867188 100.09375 1085.496094 C 106.375 1088.773438 112.15625 1090.449219 119.246094 1090.347656 C 126.335938 1089.589844 133.039062 1087.183594 138.933594 1083.171875 C 142.746094 1080.007812 146.023438 1076.667969 148.75 1072.5 C 154.425781 1074.332031 158.453125 1077.554688 162.890625 1081.40625 L 164.972656 1083.179688 C 166.65625 1084.613281 168.328125 1086.054688 170 1087.5 C 166.683594 1094.941406 160.714844 1100.0625 154.3125 1104.917969 C 143.976562 1111.871094 132.523438 1116.605469 120 1117.5 C 106.957031 1118.261719 95.382812 1116.421875 83.4375 1111.015625 C 75.984375 1107.007812 70.414062 1101.671875 65.582031 1094.75 C 60.203125 1085.765625 58.644531 1077.335938 58.4375 1066.953125 C 58.675781 1054.074219 61.359375 1043.191406 67.980469 1032.105469 C 69.824219 1029.265625 71.75 1026.480469 73.75 1023.75 L 75.328125 1021.492188 C 82.054688 1012.722656 91.984375 1006.332031 101.902344 1001.691406 C 111.777344 997.78125 120.546875 996.027344 131.171875 996.015625 " fill-opacity="1" fill-rule="nonzero"/><path fill="#010001" d="M 962.5 997.5 C 970.257812 997.375 978.015625 997.285156 985.777344 997.226562 C 988.410156 997.199219 991.046875 997.164062 993.679688 997.121094 C 1020.09375 996.699219 1020.09375 996.699219 1030.152344 1001.1875 C 1034.839844 1003.808594 1037.960938 1006.597656 1041.484375 1010.625 C 1044.746094 1016.925781 1045.824219 1022.945312 1046.25 1030 C 1045.820312 1038.199219 1043.71875 1045.328125 1039.425781 1052.332031 C 1034.683594 1058.902344 1029.464844 1064.402344 1022.109375 1067.96875 C 1009.894531 1072.523438 997.671875 1072.835938 984.765625 1072.65625 L 980.074219 1072.621094 C 976.300781 1072.59375 972.527344 1072.550781 968.75 1072.5 L 968.332031 1074.921875 L 966.40625 1086.015625 L 965.746094 1089.820312 C 965.308594 1092.355469 964.863281 1094.890625 964.417969 1097.425781 C 963.964844 1100.023438 963.515625 1102.625 963.070312 1105.226562 L 962.414062 1109 L 961.824219 1112.40625 L 961.25 1115 L 960 1116.25 C 956.835938 1116.339844 953.707031 1116.363281 950.546875 1116.328125 L 947.855469 1116.3125 C 945.652344 1116.292969 943.453125 1116.273438 941.25 1116.25 C 941.972656 1105.511719 943.707031 1095.097656 945.726562 1084.535156 L 946.695312 1079.394531 C 947.542969 1074.90625 948.390625 1070.414062 949.246094 1065.925781 C 949.929688 1062.328125 950.609375 1058.730469 951.289062 1055.128906 C 954.910156 1035.898438 958.597656 1016.679688 962.5 997.5 " fill-opacity="1" fill-rule="nonzero"/><path fill="#017837" d="M 683.75 997.5 C 688.488281 997.425781 693.230469 997.382812 697.96875 997.34375 C 699.320312 997.324219 700.667969 997.300781 702.058594 997.28125 L 705.964844 997.257812 L 709.578125 997.214844 L 712.5 997.5 L 715 1000 C 715.679688 1002.96875 715.679688 1002.96875 716.203125 1006.742188 L 716.808594 1011.015625 L 717.433594 1015.664062 L 718.09375 1020.4375 C 718.554688 1023.785156 719.011719 1027.128906 719.460938 1030.476562 C 720.035156 1034.734375 720.625 1038.988281 721.21875 1043.246094 C 721.789062 1047.332031 722.34375 1051.417969 722.898438 1055.507812 L 723.539062 1060.09375 C 724.652344 1068.453125 725.292969 1076.566406 725 1085 L 727.5 1085 L 728.425781 1081.863281 C 730.238281 1076.832031 732.597656 1072.34375 735.15625 1067.65625 C 738.828125 1060.828125 742.429688 1053.980469 745.859375 1047.03125 C 751.359375 1035.917969 757.09375 1024.925781 762.816406 1013.921875 L 765.027344 1009.667969 L 767.019531 1005.847656 C 768.449219 1003.074219 769.859375 1000.292969 771.25 997.5 L 802.5 997.5 C 801.488281 1002.554688 800.800781 1005.058594 798.417969 1009.320312 L 796.632812 1012.550781 L 794.6875 1016.015625 L 790.5625 1023.464844 L 788.398438 1027.355469 C 785.640625 1032.371094 782.910156 1037.398438 780.210938 1042.441406 C 773.519531 1054.867188 766.683594 1067.21875 759.703125 1079.484375 C 754.4375 1088.761719 749.261719 1098.089844 744.171875 1107.464844 L 742.558594 1110.417969 L 741.144531 1113.019531 C 740 1115 740 1115 738.75 1116.25 C 736.28125 1116.375 733.804688 1116.414062 731.332031 1116.417969 L 726.765625 1116.421875 L 721.953125 1116.40625 L 717.15625 1116.421875 L 712.582031 1116.417969 L 708.363281 1116.410156 C 705 1116.25 705 1116.25 702.5 1115 C 701.714844 1111.695312 701.046875 1108.367188 700.496094 1105.011719 L 699.941406 1101.839844 C 699.332031 1098.359375 698.742188 1094.878906 698.152344 1091.394531 L 696.902344 1084.148438 C 696.03125 1079.074219 695.160156 1074 694.300781 1068.921875 C 693.195312 1062.425781 692.082031 1055.933594 690.953125 1049.441406 C 690.09375 1044.449219 689.234375 1039.453125 688.378906 1034.457031 C 687.972656 1032.0625 687.558594 1029.667969 687.144531 1027.277344 C 686.570312 1023.921875 685.996094 1020.5625 685.429688 1017.207031 L 684.914062 1014.226562 C 683.96875 1008.566406 683.585938 1003.238281 683.75 997.5 " fill-opacity="1" fill-rule="nonzero"/><path fill="#010001" d="M 1233.75 997.5 C 1239.285156 996.207031 1244.417969 995.503906 1250.019531 996.496094 C 1253.125 997.753906 1254.445312 999.195312 1256.511719 1001.820312 C 1259.914062 1006.9375 1262.808594 1012.332031 1265.652344 1017.769531 C 1268.640625 1023.402344 1271.957031 1028.828125 1275.234375 1034.296875 C 1276.578125 1036.578125 1277.917969 1038.859375 1279.257812 1041.140625 C 1284.054688 1049.289062 1288.90625 1057.40625 1293.792969 1065.5 C 1294.75 1067.089844 1295.707031 1068.679688 1296.660156 1070.269531 C 1297.992188 1072.496094 1299.332031 1074.71875 1300.679688 1076.9375 L 1303.023438 1080.832031 C 1304.734375 1083.871094 1304.734375 1083.871094 1307.5 1085 L 1307.664062 1082.328125 C 1308.378906 1072.277344 1309.949219 1062.558594 1311.878906 1052.675781 L 1312.796875 1047.863281 C 1313.597656 1043.695312 1314.402344 1039.527344 1315.210938 1035.359375 C 1316.035156 1031.085938 1316.855469 1026.8125 1317.671875 1022.539062 C 1319.273438 1014.191406 1320.882812 1005.84375 1322.5 997.5 L 1341.25 997.5 C 1342.582031 1001.492188 1342.441406 1002.792969 1341.632812 1006.792969 L 1340.957031 1010.210938 L 1340.195312 1013.933594 L 1339.421875 1017.832031 C 1338.578125 1022.042969 1337.726562 1026.257812 1336.875 1030.46875 C 1335.714844 1036.273438 1334.554688 1042.078125 1333.398438 1047.886719 L 1332.519531 1052.285156 C 1330.71875 1061.289062 1328.980469 1070.308594 1327.304688 1079.339844 L 1326.699219 1082.609375 C 1325.949219 1086.652344 1325.199219 1090.699219 1324.464844 1094.742188 C 1323.972656 1097.457031 1323.472656 1100.171875 1322.96875 1102.886719 L 1322.136719 1107.449219 C 1321.359375 1110.773438 1320.449219 1113.3125 1318.75 1116.25 C 1316.023438 1116.589844 1313.289062 1116.832031 1310.546875 1117.03125 L 1305.933594 1117.472656 L 1301.25 1116.25 C 1297.621094 1112.527344 1295.125 1108.210938 1292.5 1103.75 L 1290.082031 1099.746094 C 1287.921875 1096.117188 1285.789062 1092.472656 1283.683594 1088.8125 C 1281.378906 1084.816406 1279.0625 1080.824219 1276.734375 1076.839844 L 1275.328125 1074.433594 C 1270.417969 1066.035156 1265.308594 1057.757812 1260.136719 1049.511719 L 1258.296875 1046.574219 L 1256.582031 1043.84375 C 1255.054688 1041.34375 1253.625 1038.804688 1252.210938 1036.238281 L 1250 1032.5 L 1247.5 1031.25 L 1247.105469 1033.367188 C 1245.730469 1040.773438 1244.351562 1048.175781 1242.96875 1055.578125 C 1242.457031 1058.328125 1241.945312 1061.074219 1241.433594 1063.824219 C 1238.878906 1077.574219 1236.296875 1091.320312 1233.457031 1105.015625 L 1232.835938 1108.046875 C 1232.34375 1110.371094 1231.800781 1112.6875 1231.25 1115 L 1230 1116.25 C 1226.835938 1116.339844 1223.707031 1116.363281 1220.546875 1116.328125 L 1217.855469 1116.3125 C 1215.652344 1116.292969 1213.453125 1116.273438 1211.25 1116.25 C 1212.160156 1108.144531 1213.558594 1100.195312 1215.09375 1092.1875 L 1215.867188 1088.097656 C 1216.695312 1083.730469 1217.527344 1079.363281 1218.359375 1075 L 1222.613281 1052.589844 C 1224.246094 1044.003906 1225.859375 1035.414062 1227.449219 1026.820312 L 1227.984375 1023.933594 C 1228.953125 1018.71875 1228.953125 1018.71875 1229.914062 1013.503906 C 1230.332031 1011.222656 1230.753906 1008.941406 1231.175781 1006.664062 L 1231.867188 1002.902344 C 1232.5 1000 1232.5 1000 1233.75 997.5 " fill-opacity="1" fill-rule="nonzero"/><path fill="#017938" d="M 528.75 997.5 L 625 997.5 C 622.5 1016.25 622.5 1016.25 620 1022.5 L 587.5 1023.75 C 586.027344 1031.289062 584.558594 1038.824219 583.085938 1046.363281 C 580.765625 1058.230469 578.492188 1070.105469 576.265625 1081.992188 C 575.09375 1088.234375 573.929688 1094.476562 572.777344 1100.722656 L 571.726562 1106.34375 L 571.253906 1108.957031 C 570.867188 1110.976562 570.449219 1112.992188 570 1115 L 568.75 1116.25 C 566.796875 1116.351562 564.84375 1116.390625 562.886719 1116.371094 L 559.308594 1116.359375 L 555.546875 1116.328125 L 551.769531 1116.3125 C 548.679688 1116.296875 545.589844 1116.277344 542.5 1116.25 C 541.160156 1111.183594 541.441406 1107.457031 542.445312 1102.335938 L 543.332031 1097.730469 L 544.320312 1092.789062 L 545.316406 1087.675781 C 546.015625 1084.101562 546.71875 1080.535156 547.425781 1076.964844 C 548.332031 1072.414062 549.226562 1067.863281 550.113281 1063.3125 C 550.964844 1058.945312 551.820312 1054.578125 552.679688 1050.210938 L 553.167969 1047.71875 C 553.632812 1045.363281 554.101562 1043.007812 554.570312 1040.648438 L 555.371094 1036.601562 C 556.382812 1031.875 557.578125 1027.191406 558.75 1022.5 L 523.75 1022.5 C 526.25 1006.25 526.25 1006.25 528.75 997.5 " fill-opacity="1" fill-rule="nonzero"/><path fill="#010001" d="M 1358.75 997.5 L 1455 997.5 C 1454.351562 1003.355469 1453.65625 1009.222656 1452.5 1015 L 1415 1016.25 C 1412.09375 1028.703125 1412.09375 1028.703125 1409.507812 1041.199219 L 1408.632812 1045.742188 L 1407.734375 1050.46875 L 1406.769531 1055.472656 C 1405.234375 1063.464844 1403.707031 1071.457031 1402.199219 1079.449219 C 1401.527344 1083 1400.851562 1086.546875 1400.171875 1090.097656 C 1399.851562 1091.789062 1399.53125 1093.484375 1399.214844 1095.179688 C 1398.773438 1097.546875 1398.324219 1099.910156 1397.871094 1102.273438 L 1397.105469 1106.347656 C 1396.25 1110 1396.25 1110 1393.75 1116.25 L 1376.25 1116.25 C 1374.886719 1112.15625 1375.113281 1110.636719 1375.90625 1106.488281 L 1376.605469 1102.773438 L 1377.390625 1098.738281 L 1378.195312 1094.523438 C 1379.046875 1090.046875 1379.914062 1085.570312 1380.78125 1081.09375 L 1382.445312 1072.363281 C 1386.101562 1053.21875 1389.90625 1034.105469 1393.75 1015 L 1356.25 1015 C 1357.5 1002.5 1357.5 1002.5 1358.75 997.5 " fill-opacity="1" fill-rule="nonzero"/><path fill="#017938" d="M 641.25 997.5 L 668.75 997.5 C 667.953125 1005.460938 667.078125 1013.054688 665.550781 1020.855469 L 664.984375 1023.8125 C 664.394531 1026.890625 663.800781 1029.96875 663.203125 1033.046875 L 662.019531 1039.210938 L 660.292969 1048.199219 C 658.402344 1058.011719 656.617188 1067.84375 654.933594 1077.695312 C 654.289062 1081.460938 653.644531 1085.226562 652.996094 1088.988281 C 652.660156 1090.929688 652.332031 1092.871094 652.003906 1094.8125 C 651.527344 1097.652344 651.039062 1100.488281 650.546875 1103.320312 L 650.113281 1105.949219 C 649.371094 1110.152344 648.660156 1112.636719 646.25 1116.25 C 643.554688 1116.675781 643.554688 1116.675781 640.261719 1116.617188 L 636.699219 1116.578125 C 635.46875 1116.546875 634.238281 1116.515625 632.96875 1116.484375 L 629.207031 1116.433594 C 626.140625 1116.390625 623.070312 1116.328125 620 1116.25 C 618.476562 1111.785156 619.007812 1108.5 619.90625 1103.910156 L 620.765625 1099.414062 L 621.734375 1094.546875 L 622.710938 1089.476562 C 623.574219 1085.007812 624.445312 1080.542969 625.328125 1076.078125 C 626.707031 1069.035156 628.070312 1061.988281 629.433594 1054.945312 C 629.933594 1052.367188 630.4375 1049.785156 630.941406 1047.207031 C 633.1875 1035.648438 635.28125 1024.070312 637.152344 1012.441406 L 637.691406 1009.210938 L 638.132812 1006.449219 C 638.75 1003.75 638.75 1003.75 641.25 997.5 " fill-opacity="1" fill-rule="nonzero"/><path fill="#010001" d="M 1186.25 997.5 C 1189.191406 997.410156 1192.136719 997.394531 1195.078125 997.421875 L 1199.964844 997.457031 L 1203.75 997.5 L 1205 1000 C 1204.757812 1002.433594 1204.757812 1002.433594 1204.1875 1005.449219 L 1203.554688 1008.882812 L 1202.835938 1012.632812 L 1202.109375 1016.535156 C 1201.335938 1020.6875 1200.550781 1024.835938 1199.765625 1028.984375 C 1198.753906 1034.367188 1197.746094 1039.75 1196.742188 1045.132812 L 1195.980469 1049.183594 C 1194.0625 1059.496094 1192.222656 1069.824219 1190.460938 1080.167969 C 1189.078125 1088.203125 1187.59375 1096.21875 1186.015625 1104.21875 L 1185.386719 1107.449219 C 1184.878906 1109.976562 1184.320312 1112.488281 1183.75 1115 L 1182.5 1116.25 C 1179.335938 1116.339844 1176.207031 1116.363281 1173.046875 1116.328125 L 1170.355469 1116.3125 C 1168.152344 1116.292969 1165.953125 1116.273438 1163.75 1116.25 C 1164.421875 1107.332031 1165.539062 1098.660156 1167.273438 1089.886719 C 1167.5 1088.722656 1167.726562 1087.558594 1167.953125 1086.359375 C 1168.683594 1082.597656 1169.417969 1078.835938 1170.15625 1075.078125 L 1171.675781 1067.253906 C 1172.699219 1061.976562 1173.726562 1056.699219 1174.757812 1051.417969 C 1176.152344 1044.257812 1177.527344 1037.09375 1178.894531 1029.925781 L 1180.683594 1020.601562 C 1181.058594 1018.644531 1181.433594 1016.683594 1181.808594 1014.722656 C 1182.320312 1012.03125 1182.835938 1009.339844 1183.359375 1006.648438 L 1184.234375 1002.089844 L 1185 998.75 Z M 1186.25 997.5 " fill-opacity="1" fill-rule="nonzero"/><path fill="#fbfcfc" d="M 980 1015 C 983.011719 1014.515625 983.011719 1014.515625 986.773438 1014.503906 L 990.902344 1014.488281 L 995.234375 1014.53125 L 999.496094 1014.488281 C 1007.308594 1014.515625 1013.121094 1014.960938 1020 1018.75 C 1023.046875 1020.625 1023.046875 1020.625 1025 1023.75 C 1025.894531 1029.464844 1025.773438 1034.878906 1024.132812 1040.445312 C 1022.160156 1044.859375 1020.214844 1047.320312 1016.484375 1050.46875 C 1006.832031 1055.390625 998.257812 1055.3125 987.578125 1055.15625 L 983.179688 1055.121094 C 979.621094 1055.09375 976.058594 1055.050781 972.5 1055 C 972.171875 1047.167969 973.414062 1039.875 974.84375 1032.1875 L 975.503906 1028.425781 L 976.164062 1024.824219 L 976.757812 1021.5625 C 977.5 1018.75 977.5 1018.75 980 1015 M 1087.5 1015 C 1093.148438 1014.890625 1098.800781 1014.824219 1104.453125 1014.765625 L 1109.289062 1014.667969 C 1122.585938 1014.566406 1122.585938 1014.566406 1127.855469 1016.753906 C 1131.25 1018.75 1131.25 1018.75 1133.59375 1020.9375 C 1135.605469 1024.964844 1136.101562 1027.976562 1136.25 1032.5 C 1135.535156 1036.554688 1134.398438 1040.09375 1132.5 1043.75 C 1129.589844 1047.195312 1126.226562 1049.390625 1122.179688 1051.394531 C 1117.949219 1052.757812 1114.378906 1052.78125 1109.9375 1052.742188 L 1107.441406 1052.734375 C 1104.832031 1052.714844 1102.21875 1052.691406 1099.609375 1052.65625 C 1097.832031 1052.644531 1096.050781 1052.632812 1094.273438 1052.621094 C 1089.933594 1052.59375 1085.589844 1052.550781 1081.25 1052.5 C 1081.894531 1043.488281 1083.101562 1034.828125 1085.078125 1026.015625 L 1085.785156 1022.769531 C 1086.347656 1020.179688 1086.921875 1017.589844 1087.5 1015 M 227.5 1022.5 C 232.785156 1022.390625 238.074219 1022.324219 243.359375 1022.265625 L 247.898438 1022.167969 L 252.28125 1022.132812 L 256.308594 1022.074219 C 260 1022.5 260 1022.5 263.449219 1024.164062 C 266.25 1026.25 266.25 1026.25 268.75 1030 C 269.035156 1033.894531 268.523438 1037.488281 267.5 1041.25 C 264.710938 1044.890625 262.484375 1046.898438 258.375 1048.894531 C 254.574219 1050.140625 251.550781 1050.285156 247.554688 1050.242188 L 243.339844 1050.21875 L 238.984375 1050.15625 L 234.554688 1050.121094 C 230.953125 1050.09375 227.351562 1050.050781 223.75 1050 C 224.359375 1040.652344 225.417969 1031.636719 227.5 1022.5 M 471.25 1030 L 473.75 1030 C 475.910156 1038.949219 477.890625 1047.910156 479.609375 1056.953125 C 479.773438 1057.800781 479.9375 1058.648438 480.105469 1059.519531 C 480.859375 1063.542969 481.25 1067.132812 481.25 1071.25 L 450 1071.25 C 454.171875 1058.730469 454.171875 1058.730469 457.109375 1054.84375 C 462.640625 1047.03125 466.847656 1038.480469 471.25 1030 " fill-opacity="1" fill-rule="nonzero"/><path fill="#01621d" d="M 810 1031.25 L 811.25 1031.25 C 811.320312 1033.566406 811.367188 1035.886719 811.40625 1038.203125 L 811.492188 1042.113281 C 811.277344 1045.804688 810.597656 1048.800781 809.503906 1052.308594 C 807.753906 1058.566406 806.742188 1065.023438 805.546875 1071.40625 L 803.902344 1080.085938 L 803.175781 1083.945312 C 802.738281 1086.25 802.285156 1088.550781 801.8125 1090.851562 C 801.125 1094.386719 800.828125 1097.890625 800.546875 1101.484375 L 800.230469 1105.445312 C 800.085938 1107.375 800.007812 1109.3125 800 1111.25 L 877.5 1112.5 C 877.609375 1102.230469 877.609375 1102.230469 876.25 1092.5 L 870 1092.5 L 870 1091.25 L 885 1091.25 L 883.828125 1095.546875 C 882.601562 1100.398438 881.980469 1105.164062 881.558594 1110.148438 C 881.25 1112.5 881.25 1112.5 880 1115 L 795 1115 C 795.757812 1108.929688 796.53125 1103.078125 797.652344 1097.09375 L 798.488281 1092.621094 L 799.378906 1087.890625 L 800.296875 1082.972656 C 801.101562 1078.6875 801.902344 1074.40625 802.710938 1070.125 C 803.53125 1065.742188 804.351562 1061.359375 805.171875 1056.976562 C 806.78125 1048.402344 808.390625 1039.824219 810 1031.25 " fill-opacity="1" fill-rule="nonzero"/><path fill="#01621d" d="M 886.25 1043.75 C 885.65625 1047.476562 885.058594 1051.199219 884.453125 1054.921875 L 883.941406 1058.140625 L 883.441406 1061.203125 L 882.984375 1064.042969 L 882.5 1066.25 L 881.25 1067.5 C 877.5625 1067.605469 873.878906 1067.648438 870.191406 1067.621094 L 866.832031 1067.617188 C 863.277344 1067.609375 859.726562 1067.59375 856.171875 1067.578125 C 853.769531 1067.570312 851.363281 1067.566406 848.960938 1067.5625 C 843.058594 1067.546875 837.152344 1067.527344 831.25 1067.5 L 831.019531 1069.882812 L 830.703125 1073.125 C 830.601562 1074.167969 830.5 1075.210938 830.394531 1076.289062 C 829.90625 1080.867188 829.320312 1085.433594 828.75 1090 L 857.5 1091.25 L 857.5 1092.5 C 853.492188 1092.785156 849.480469 1093.035156 845.46875 1093.28125 L 842.046875 1093.523438 L 838.699219 1093.722656 L 835.644531 1093.917969 C 832.5 1093.75 832.5 1093.75 825 1091.25 L 826.25 1070 L 828.75 1070 L 830 1065 C 840.558594 1063.234375 851.171875 1063.730469 861.839844 1063.964844 C 864.359375 1064.015625 866.882812 1064.042969 869.402344 1064.074219 L 873.933594 1064.15625 L 877.5 1063.75 C 879.746094 1060.382812 880.535156 1058.566406 881.40625 1054.765625 L 882.5 1050 C 876.109375 1047.40625 870.671875 1047.195312 863.90625 1047.34375 L 860.9375 1047.378906 C 858.542969 1047.40625 856.144531 1047.453125 853.75 1047.5 L 853.75 1045 L 835 1045 L 835 1043.75 C 842.417969 1043.507812 849.832031 1043.269531 857.25 1043.035156 C 859.964844 1042.945312 862.679688 1042.859375 865.394531 1042.773438 L 870.335938 1042.613281 C 883.339844 1042.292969 883.339844 1042.292969 886.25 1043.75 " fill-opacity="1" fill-rule="nonzero"/><path fill="#035114" d="M 540 391.25 L 541.824219 392.847656 L 544.21875 394.921875 L 546.589844 396.988281 C 548.695312 398.835938 548.695312 398.835938 551.25 400 L 551.25 402.5 L 690 402.5 L 688.75 400 L 686.328125 398.984375 L 683.75 397.5 C 682.1875 394.21875 682.1875 394.21875 681.25 391.25 C 685.230469 392.964844 687.464844 394.828125 690.15625 398.203125 C 692.761719 401.511719 692.761719 401.511719 696.25 403.75 L 696.25 406.25 C 677.722656 406.542969 659.199219 406.761719 640.671875 406.898438 C 632.066406 406.960938 623.460938 407.050781 614.859375 407.191406 C 606.550781 407.332031 598.246094 407.402344 589.9375 407.4375 C 586.773438 407.457031 583.609375 407.503906 580.445312 407.570312 C 556.289062 408.066406 556.289062 408.066406 549.902344 405.003906 C 545.570312 401.984375 542.496094 398.371094 540 393.75 Z M 817.5 997.5 C 820.070312 997.382812 822.640625 997.355469 825.214844 997.355469 L 827.652344 997.355469 C 830.324219 997.355469 832.996094 997.367188 835.667969 997.378906 L 841.210938 997.382812 C 846.085938 997.386719 850.957031 997.398438 855.828125 997.414062 C 860.796875 997.425781 865.765625 997.433594 870.734375 997.4375 C 880.488281 997.453125 890.246094 997.472656 900 997.5 C 899.640625 1000.027344 899.277344 1002.550781 898.90625 1005.078125 L 898.292969 1009.339844 C 897.492188 1013.792969 896.242188 1018.152344 895 1022.5 L 840 1022.5 L 838.75 1020 C 842.1875 1019.03125 845.226562 1018.597656 848.792969 1018.605469 L 851.75 1018.605469 L 854.902344 1018.628906 L 858.160156 1018.632812 C 861.585938 1018.640625 865.011719 1018.65625 868.4375 1018.671875 C 870.761719 1018.675781 873.089844 1018.683594 875.414062 1018.6875 C 881.109375 1018.703125 886.804688 1018.722656 892.5 1018.75 C 892.921875 1016.355469 893.335938 1013.957031 893.75 1011.5625 L 894.453125 1007.519531 C 895.121094 1003.558594 895.121094 1003.558594 895 998.75 L 892.53125 998.863281 C 875.015625 999.660156 857.554688 1000.144531 840.019531 999.953125 L 836.089844 999.921875 L 832.609375 999.878906 L 830 1000 L 828.75 1001.25 L 825.859375 1001.015625 L 822.5 1001.25 C 819.703125 1002.941406 819.703125 1002.941406 817.5 1006.25 C 816.175781 1010.453125 815.429688 1014.722656 814.6875 1019.0625 L 814.035156 1022.605469 C 813.503906 1025.484375 812.992188 1028.367188 812.5 1031.25 L 811.25 1031.25 C 811.796875 1023.417969 812.945312 1015.757812 814.375 1008.046875 L 814.871094 1005.339844 C 815.289062 1003.136719 815.765625 1000.941406 816.25 998.75 Z M 817.5 997.5 " fill-opacity="1" fill-rule="nonzero"/><path fill="#01621d" d="M 1181.25 930 C 1183.59375 930.9375 1183.59375 930.9375 1186.25 932.5 C 1187.105469 934.15625 1187.9375 935.824219 1188.75 937.5 L 1192.5 938.75 C 1195.234375 941.796875 1195.234375 941.796875 1197.5 945 L 1197.5 947.5 L 1061.25 947.5 L 1061.25 945 L 1190 943.75 L 1183.75 936.25 C 1182.109375 932.65625 1182.109375 932.65625 1181.25 930 " fill-opacity="1" fill-rule="nonzero"/><path fill="#035114" d="M 325 997.5 L 406.25 997.5 C 407.902344 1002.457031 406.777344 1006.425781 405.78125 1011.40625 L 405.253906 1014.214844 C 404.789062 1016.566406 404.289062 1018.914062 403.75 1021.25 L 402.5 1022.5 C 400.8125 1022.652344 399.117188 1022.722656 397.425781 1022.757812 L 394.164062 1022.832031 L 390.621094 1022.894531 L 387.011719 1022.972656 C 383.1875 1023.054688 379.367188 1023.132812 375.546875 1023.203125 L 367.796875 1023.367188 C 361.449219 1023.5 355.097656 1023.628906 348.75 1023.75 L 345 1043.75 L 342.5 1043.75 C 342.644531 1040.726562 342.800781 1037.707031 342.96875 1034.6875 C 343.007812 1033.835938 343.046875 1032.980469 343.085938 1032.105469 C 343.292969 1028.542969 343.628906 1025.351562 344.816406 1021.972656 L 346.25 1020 C 349.632812 1018.871094 351.546875 1018.597656 355.015625 1018.605469 L 358.046875 1018.605469 L 361.304688 1018.628906 L 364.652344 1018.632812 C 368.179688 1018.640625 371.707031 1018.65625 375.234375 1018.671875 C 377.625 1018.675781 380.015625 1018.683594 382.410156 1018.6875 C 388.273438 1018.703125 394.136719 1018.722656 400 1018.75 L 400.503906 1015.601562 L 401.171875 1011.484375 L 401.832031 1007.398438 C 402.5 1003.75 402.5 1003.75 403.75 1000 L 325 998.75 Z M 528.75 997.5 L 625 997.5 C 622.5 1016.25 622.5 1016.25 620 1022.5 L 587.5 1023.75 L 583.75 1042.5 L 581.25 1042.5 C 582.292969 1025.570312 582.292969 1025.570312 585 1020 C 588.824219 1018.726562 591.40625 1018.605469 595.40625 1018.628906 L 599.296875 1018.640625 L 603.359375 1018.671875 L 607.464844 1018.6875 C 610.808594 1018.703125 614.152344 1018.722656 617.5 1018.75 C 619.050781 1014.101562 619.703125 1009.855469 618.75 1005 C 615.761719 1002.582031 615.761719 1002.582031 612.5 1001.25 L 612.5 998.75 L 528.75 998.75 Z M 528.75 997.5 " fill-opacity="1" fill-rule="nonzero"/><path fill="#01621d" d="M 163.75 1083.75 L 168.75 1086.25 L 168.75 1091.25 C 162.3125 1099.851562 153.210938 1106.347656 143.75 1111.25 C 131.050781 1116.480469 118.695312 1118.425781 105 1117.5 C 95.210938 1115.929688 85.820312 1112.980469 77.5 1107.5 C 73.925781 1104.367188 70.65625 1101.050781 67.5 1097.5 L 68.75 1095 C 72.34375 1096.484375 72.34375 1096.484375 76.25 1098.75 L 77.34375 1101.796875 L 78.75 1105 C 88.015625 1111.058594 99.003906 1113.035156 109.90625 1114.113281 C 122.578125 1114.515625 134.425781 1110.386719 146.25 1106.25 L 146.25 1103.75 C 148.765625 1102.085938 148.765625 1102.085938 152.109375 1100.234375 C 159.335938 1096.011719 159.335938 1096.011719 165 1090 C 164.9375 1086.550781 164.9375 1086.550781 163.75 1083.75 M 387.5 231.25 L 641.25 231.25 L 641.25 232.5 L 397.5 232.5 L 397.5 235 L 387.5 233.75 Z M 387.5 231.25 " fill-opacity="1" fill-rule="nonzero"/><path fill="#035114" d="M 303.75 1105 L 305 1105 L 305 1112.5 L 387.5 1112.5 L 386.25 1116.25 L 303.75 1116.25 C 302.34375 1109.21875 302.34375 1109.21875 303.75 1105 " fill-opacity="1" fill-rule="nonzero"/><path fill="#01621d" d="M 234.214844 1018.296875 L 237.328125 1018.296875 L 240.546875 1018.359375 L 243.753906 1018.347656 C 249.289062 1018.394531 253.722656 1018.660156 258.75 1021.25 L 258.75 1022.5 L 227.5 1022.5 L 226.25 1035 C 225.503906 1040.019531 224.621094 1045 223.75 1050 L 253.75 1050 C 250 1052.5 250 1052.5 246.933594 1052.785156 L 243.34375 1052.742188 L 239.453125 1052.71875 L 235.390625 1052.65625 L 231.285156 1052.621094 C 227.941406 1052.59375 224.597656 1052.550781 221.25 1052.5 C 219.339844 1046.769531 220.667969 1041.527344 221.484375 1035.625 L 221.917969 1031.976562 L 222.398438 1028.476562 L 222.820312 1025.277344 C 223.75 1022.5 223.75 1022.5 225.992188 1020.28125 C 229.039062 1018.589844 230.761719 1018.28125 234.214844 1018.296875 " fill-opacity="1" fill-rule="nonzero"/><path fill="#035114" d="M 1218.75 473.75 L 1222.5 475 C 1223.15625 498.308594 1221.101562 520.929688 1216.25 543.75 L 1213.75 543.75 C 1214.289062 536.652344 1215.019531 529.667969 1216.25 522.65625 C 1218.820312 506.632812 1219.089844 489.953125 1218.75 473.75 " fill-opacity="1" fill-rule="nonzero"/><path fill="#01621d" d="M 435 1092.5 C 438.59375 1092.394531 442.191406 1092.351562 445.785156 1092.378906 L 449.058594 1092.382812 C 452.523438 1092.390625 455.988281 1092.40625 459.453125 1092.421875 C 461.796875 1092.425781 464.136719 1092.433594 466.484375 1092.4375 C 472.238281 1092.453125 477.992188 1092.472656 483.75 1092.5 L 485 1095 L 436.25 1095 L 433.75 1101.25 C 432.171875 1104.226562 430.457031 1107.09375 428.75 1110 L 426.25 1108.75 C 428.234375 1103.296875 430.84375 1096.65625 435 1092.5 M 272.5 1088.75 L 275 1088.75 L 276.277344 1092.128906 L 277.96875 1096.5625 L 279.640625 1100.957031 C 281.097656 1104.835938 281.097656 1104.835938 282.703125 1107.714844 C 283.75 1110 283.75 1110 283.75 1115 C 276.9375 1115.941406 270.15625 1116.476562 263.28125 1116.71875 L 258.796875 1116.902344 L 255 1116.25 C 252.394531 1112.984375 251.378906 1110.527344 250.390625 1106.484375 L 250 1103.75 L 252.5 1105 L 253.671875 1108.125 L 255 1111.25 C 259.703125 1112.816406 264.089844 1112.632812 268.984375 1112.578125 L 271.824219 1112.5625 C 274.132812 1112.542969 276.441406 1112.523438 278.75 1112.5 C 279.007812 1107.808594 278.40625 1104.824219 276.328125 1100.625 C 274.457031 1096.664062 273.066406 1093.136719 272.5 1088.75 M 578.75 1048.75 L 581.25 1048.75 C 580.328125 1061.261719 577.863281 1073.472656 575.546875 1085.78125 L 574.296875 1092.476562 C 573.289062 1097.898438 572.273438 1103.324219 571.25 1108.75 L 568.75 1108.75 C 568.464844 1101.3125 569.542969 1094.480469 570.9375 1087.1875 L 571.609375 1083.578125 C 573.804688 1071.929688 576.234375 1060.332031 578.75 1048.75 " fill-opacity="1" fill-rule="nonzero"/><path fill="#025214" d="M 388.75 1053.75 L 391.25 1053.75 C 391.074219 1055.808594 390.890625 1057.863281 390.703125 1059.921875 L 390.394531 1063.394531 L 390 1066.25 L 388.75 1067.5 C 385.054688 1067.699219 381.386719 1067.824219 377.691406 1067.894531 L 374.332031 1067.972656 C 370.777344 1068.054688 367.226562 1068.132812 363.671875 1068.203125 L 356.460938 1068.367188 C 350.558594 1068.5 344.652344 1068.628906 338.75 1068.75 L 337.5 1065 L 386.25 1063.75 Z M 388.75 1053.75 " fill-opacity="1" fill-rule="nonzero"/><path fill="#035114" d="M 701.25 1102.5 L 703.75 1105 C 703.90625 1109.53125 703.90625 1109.53125 703.75 1113.75 C 709.273438 1113.546875 714.792969 1113.265625 720.3125 1112.96875 L 725.0625 1112.796875 C 729.34375 1112.546875 733.328125 1112.246094 737.5 1111.25 C 740.28125 1108.890625 741.015625 1107.164062 742.5 1103.75 L 745 1103.75 C 743.566406 1108.605469 742.351562 1112.617188 738.75 1116.25 C 735.265625 1116.835938 735.265625 1116.835938 731.089844 1116.78125 L 726.542969 1116.75 L 721.796875 1116.640625 L 717.035156 1116.605469 C 705.421875 1116.460938 705.421875 1116.460938 702.5 1115 C 701.984375 1112.144531 701.984375 1112.144531 701.71875 1108.671875 L 701.433594 1105.191406 Z M 701.25 1102.5 " fill-opacity="1" fill-rule="nonzero"/><path fill="#01621d" d="M 211.25 1093.75 L 213.75 1093.75 C 213.605469 1096.09375 213.445312 1098.4375 213.28125 1100.78125 C 213.195312 1102.085938 213.105469 1103.390625 213.019531 1104.734375 C 212.488281 1108.839844 211.429688 1112.375 210 1116.25 C 205.886719 1116.285156 201.769531 1116.308594 197.65625 1116.328125 L 194.105469 1116.359375 L 190.710938 1116.371094 L 187.578125 1116.390625 C 185 1116.25 185 1116.25 182.5 1115 L 183.75 1111.25 L 183.75 1113.75 L 185.945312 1113.132812 C 190.285156 1112.152344 194.640625 1112.371094 199.0625 1112.421875 L 201.886719 1112.4375 C 204.171875 1112.457031 206.460938 1112.476562 208.75 1112.5 C 208.863281 1111.097656 208.863281 1111.097656 208.980469 1109.667969 L 209.296875 1105.9375 C 209.398438 1104.71875 209.5 1103.5 209.605469 1102.246094 C 209.9375 1099.292969 210.441406 1096.601562 211.25 1093.75 M 1090 707.5 L 1093.75 707.5 L 1093.75 710 C 1077.203125 719.730469 1058.761719 728.164062 1040 732.5 L 1040 728.75 L 1044 727.550781 C 1068.71875 720.613281 1068.71875 720.613281 1090 707.5 M 546.25 1083.75 L 547.5 1083.75 C 547.746094 1091.414062 547.761719 1097.746094 545 1105 C 544.789062 1108.4375 544.789062 1108.4375 545 1111.25 L 542.5 1111.25 L 542.5 1113.75 L 544.9375 1113.128906 C 549.910156 1112.308594 554.734375 1112.367188 559.765625 1112.421875 L 562.75 1112.4375 C 565.167969 1112.457031 567.585938 1112.476562 570 1112.5 L 568.75 1116.25 L 542.5 1116.25 C 541.414062 1110.808594 541.191406 1108.746094 542.222656 1103.648438 L 542.917969 1100.121094 L 543.671875 1096.484375 L 544.410156 1092.777344 C 545.015625 1089.765625 545.628906 1086.757812 546.25 1083.75 " fill-opacity="1" fill-rule="nonzero"/><path fill="#035114" d="M 295 1032.5 L 297.5 1032.5 C 297.121094 1040.292969 295.78125 1046.324219 292.050781 1053.21875 C 287.753906 1059.570312 282.273438 1064.363281 275.523438 1067.980469 C 272.890625 1069.175781 270.21875 1070.265625 267.5 1071.25 L 265 1068.75 L 268.015625 1067.417969 C 278.121094 1062.742188 278.121094 1062.742188 285.949219 1055.074219 C 290.222656 1047.988281 293.625 1040.6875 295 1032.5 " fill-opacity="1" fill-rule="nonzero"/><path fill="#015e1b" d="M 621.25 1098.75 C 622.578125 1100.78125 622.578125 1100.78125 623.75 1103.75 L 622.5 1111.25 L 647.5 1112.5 L 646.25 1116.25 L 620 1116.25 C 618.765625 1111.320312 618.855469 1109.460938 619.921875 1104.6875 L 620.660156 1101.308594 Z M 621.25 1098.75 " fill-opacity="1" fill-rule="nonzero"/><path fill="#01621d" d="M 513.75 1102.5 L 517.5 1102.5 L 518.75 1115 C 509.601562 1115.949219 500.457031 1116.800781 491.25 1116.25 L 488.75 1115 L 490 1110 L 490 1113.75 L 511.25 1111.25 Z M 513.75 1102.5 " fill-opacity="1" fill-rule="nonzero"/><path fill="#035114" d="M 103.75 1028.75 C 102.414062 1031.753906 101.023438 1034.023438 98.90625 1036.5625 C 93.445312 1043.632812 91.058594 1049.871094 89.6875 1058.75 C 89.355469 1061.246094 89.042969 1063.746094 88.75 1066.25 L 86.25 1066.25 C 85.484375 1056.429688 87.375 1048.992188 91.25 1040 L 93.046875 1035.625 C 95 1032.5 95 1032.5 98.203125 1030.15625 C 101.25 1028.75 101.25 1028.75 103.75 1028.75 " fill-opacity="1" fill-rule="nonzero"/><path fill="#01621d" d="M 393.75 1043.75 L 392.5 1052.5 L 390 1052.5 L 390 1046.25 L 387.40625 1046.269531 C 383.476562 1046.292969 379.550781 1046.3125 375.625 1046.328125 L 371.542969 1046.359375 C 364.234375 1046.382812 357.226562 1046.113281 350 1045 L 350 1043.75 C 354.949219 1043.5 359.894531 1043.273438 364.84375 1043.046875 L 369.042969 1042.835938 C 377.414062 1042.464844 385.441406 1042.621094 393.75 1043.75 M 662.5 1017.5 L 665 1017.5 C 664.273438 1026.433594 662.917969 1035.117188 661.171875 1043.90625 L 660.464844 1047.527344 C 659.898438 1050.4375 659.328125 1053.34375 658.75 1056.25 L 656.25 1056.25 C 656.976562 1047.316406 658.332031 1038.632812 660.078125 1029.84375 L 660.785156 1026.222656 C 661.351562 1023.3125 661.921875 1020.40625 662.5 1017.5 " fill-opacity="1" fill-rule="nonzero"/><path fill="#025114" d="M 139.246094 1020.839844 C 141.640625 1021.875 141.640625 1021.875 145 1023.75 L 145 1026.25 L 141.640625 1025 C 134.566406 1023 127.277344 1023.140625 120 1023.75 C 116.367188 1024.675781 113.425781 1025.914062 110 1027.5 L 106.25 1028.75 L 105 1026.25 C 114.542969 1019.207031 127.710938 1017.605469 139.246094 1020.839844 " fill-opacity="1" fill-rule="nonzero"/><path fill="#01631e" d="M 595.234375 1018.671875 L 598.648438 1018.707031 L 601.25 1018.75 C 599.703125 1020.570312 599.703125 1020.570312 597.5 1022.5 C 594.160156 1023.335938 590.953125 1023.46875 587.5 1023.75 L 583.75 1042.5 L 581.25 1042.5 C 582.292969 1025.570312 582.292969 1025.570312 585 1020 C 588.769531 1018.742188 591.300781 1018.621094 595.234375 1018.671875 " fill-opacity="1" fill-rule="nonzero"/><path fill="#01621d" d="M 717.5 1042.5 L 720 1042.5 C 722.21875 1052.042969 723.167969 1061.476562 723.75 1071.25 L 720 1070 C 718.730469 1066.597656 718.535156 1063.199219 718.355469 1059.589844 L 718.195312 1056.5625 L 718.046875 1053.4375 L 717.882812 1050.253906 C 717.753906 1047.671875 717.625 1045.085938 717.5 1042.5 " fill-opacity="1" fill-rule="nonzero"/><path fill="#035114" d="M 523.75 1018.75 L 558.75 1020 L 558.75 1022.5 L 523.75 1022.5 Z M 523.75 1018.75 " fill-opacity="1" fill-rule="nonzero"/><path fill="#01611c" d="M 1185 615 L 1187.5 615 C 1183.734375 625.253906 1177.238281 634.386719 1170 642.5 L 1167.5 640 L 1170.058594 636.433594 L 1173.4375 631.71875 L 1175.117188 629.378906 L 1176.777344 627.058594 L 1178.425781 624.761719 C 1179.929688 622.597656 1181.34375 620.398438 1182.753906 618.171875 Z M 1185 615 " fill-opacity="1" fill-rule="nonzero"/><path fill="#01621d" d="M 198.75 1023.75 L 200 1023.75 L 198.75 1045 L 196.25 1045 L 196.5625 1049.375 C 196.621094 1058.582031 193.671875 1067.441406 191.25 1076.25 C 189.9375 1072.773438 190.074219 1070.613281 190.527344 1066.859375 C 190.832031 1065.117188 191.148438 1063.378906 191.476562 1061.640625 L 191.976562 1058.839844 C 192.503906 1055.890625 193.050781 1052.945312 193.59375 1050 L 194.664062 1044.050781 C 197.476562 1028.480469 197.476562 1028.480469 198.75 1023.75 " fill-opacity="1" fill-rule="nonzero"/><path fill="#035114" d="M 651.25 1077.5 L 653.75 1077.5 C 653.046875 1088.953125 650.988281 1100.019531 648.75 1111.25 L 646.25 1111.25 C 645.917969 1103.683594 647.175781 1096.835938 648.75 1089.453125 L 649.472656 1085.960938 C 650.058594 1083.136719 650.648438 1080.316406 651.25 1077.5 " fill-opacity="1" fill-rule="nonzero"/><path fill="#01621d" d="M 816.25 998.75 L 830 998.75 L 828.75 1001.25 L 825.9375 1000.9375 C 822.46875 1000.972656 822.46875 1000.972656 819.960938 1002.96875 C 816.273438 1007.886719 815.707031 1013.085938 814.6875 1019.0625 L 814.035156 1022.605469 C 813.503906 1025.484375 812.992188 1028.367188 812.5 1031.25 L 811.25 1031.25 C 812.015625 1020.246094 814.117188 1009.550781 816.25 998.75 M 395 1111.25 L 397.164062 1111.867188 C 400.019531 1112.503906 402.488281 1112.640625 405.410156 1112.621094 L 408.4375 1112.609375 L 411.5625 1112.578125 L 414.746094 1112.5625 C 417.332031 1112.542969 419.914062 1112.523438 422.5 1112.5 L 422.5 1116.25 L 395 1116.25 Z M 713.75 1010 L 716.25 1010 C 716.882812 1014.035156 717.507812 1018.070312 718.125 1022.109375 L 718.667969 1025.5625 L 719.179688 1028.921875 L 719.65625 1031.996094 C 720.011719 1035.105469 720.058594 1038.121094 720 1041.25 L 717.5 1041.25 C 715.148438 1030.753906 713.0625 1020.832031 713.75 1010 " fill-opacity="1" fill-rule="nonzero"/><path fill="#025215" d="M 336.25 1068.75 L 338.75 1068.75 C 338.109375 1076.285156 337.414062 1083.773438 336.25 1091.25 L 348.75 1091.25 L 348.75 1092.5 L 333.75 1092.5 C 332.34375 1088.277344 332.886719 1085.609375 333.722656 1081.3125 L 334.296875 1078.515625 L 334.855469 1075.675781 C 335.316406 1073.367188 335.777344 1071.058594 336.25 1068.75 " fill-opacity="1" fill-rule="nonzero"/><path fill="#025516" d="M 180 1023.75 C 179.914062 1025.914062 179.914062 1025.914062 178.75 1028.75 C 175.996094 1030.722656 173.132812 1032.519531 170.15625 1034.140625 L 167.738281 1035.546875 C 165.636719 1036.726562 163.445312 1037.75 161.25 1038.75 L 157.5 1037.5 C 161.886719 1033.628906 165.613281 1031.570312 171.25 1030 L 171.25 1027.5 C 176.730469 1023.75 176.730469 1023.75 180 1023.75 " fill-opacity="1" fill-rule="nonzero"/><path fill="#01621d" d="M 303.75 1105 L 305 1105 L 305 1112.5 L 320 1112.5 L 321.25 1116.25 L 303.75 1116.25 C 302.34375 1109.21875 302.34375 1109.21875 303.75 1105 " fill-opacity="1" fill-rule="nonzero"/><path fill="#035114" d="M 641.25 997.5 L 668.75 997.5 C 667.5 1010 667.5 1010 666.25 1015 L 663.75 1015 C 663.925781 1012.761719 664.109375 1010.519531 664.296875 1008.28125 C 664.398438 1007.035156 664.5 1005.789062 664.605469 1004.503906 C 665 1001.25 665 1001.25 666.25 998.75 L 641.25 998.75 Z M 641.25 997.5 " fill-opacity="1" fill-rule="nonzero"/><path fill="#01621d" d="M 373.75 1091.25 L 391.25 1091.25 L 388.75 1108.75 L 386.25 1108.75 L 386.292969 1106.464844 C 386.304688 1105.464844 386.316406 1104.464844 386.328125 1103.4375 L 386.371094 1100.449219 C 386.332031 1097.117188 386.332031 1097.117188 385 1092.5 L 373.75 1092.5 Z M 612.5 998.75 C 620.070312 998.507812 620.070312 998.507812 622.5 998.75 L 625 1001.25 C 624.699219 1003.679688 624.699219 1003.679688 623.90625 1006.40625 L 623.136719 1009.148438 L 622.5 1011.25 L 620 1011.25 L 619.0625 1007.65625 L 617.5 1003.75 C 615 1001.976562 615 1001.976562 612.5 1001.25 Z M 612.5 998.75 " fill-opacity="1" fill-rule="nonzero"/><path fill="#035114" d="M 237.5 1071.25 L 240 1073.75 L 238.75 1077.5 L 238.75 1075 L 217.5 1075 L 216.25 1072.5 C 223.367188 1071.578125 230.320312 1070.871094 237.5 1071.25 " fill-opacity="1" fill-rule="nonzero"/><path fill="#01621d" d="M 263.75 1071.25 L 267.5 1071.25 C 268.339844 1073.070312 269.171875 1074.894531 270 1076.71875 L 271.40625 1079.792969 C 272.5 1082.5 272.5 1082.5 272.5 1085 C 269.53125 1084.6875 269.53125 1084.6875 266.25 1083.75 C 264.609375 1081.640625 264.609375 1081.640625 263.75 1078.75 C 263.59375 1074.6875 263.59375 1074.6875 263.75 1071.25 " fill-opacity="1" fill-rule="nonzero"/><path fill="#025616" d="M 771.25 997.5 L 802.5 997.5 L 801.25 1003.75 L 798.75 1005 L 796.25 1002.5 L 797.5 998.75 C 793.386719 998.925781 789.269531 999.105469 785.15625 999.296875 L 781.605469 999.445312 L 778.210938 999.605469 L 775.078125 999.742188 C 772.421875 999.851562 772.421875 999.851562 770 1001.25 Z M 771.25 997.5 " fill-opacity="1" fill-rule="nonzero"/><path fill="#01621d" d="M 1161.25 648.75 L 1163.75 648.75 C 1161.671875 653.90625 1157.972656 657.582031 1154.21875 661.5625 L 1152.265625 663.664062 C 1150.679688 665.363281 1149.089844 667.058594 1147.5 668.75 L 1145 666.25 C 1147.644531 663.324219 1150.304688 660.410156 1152.96875 657.5 L 1155.253906 654.972656 L 1157.449219 652.578125 L 1159.476562 650.355469 Z M 1212.5 545 L 1215 545 C 1214.191406 553.6875 1211.425781 561.726562 1208.75 570 L 1206.25 568.75 C 1207.054688 565.492188 1207.863281 562.238281 1208.671875 558.984375 L 1209.363281 556.1875 C 1210.300781 552.410156 1211.269531 548.695312 1212.5 545 " fill-opacity="1" fill-rule="nonzero"/><path fill="#035114" d="M 763.75 1065 L 766.25 1065 C 764.289062 1072.457031 760.3125 1078.539062 756.25 1085 L 753.75 1082.5 Z M 763.75 1065 " fill-opacity="1" fill-rule="nonzero"/><path fill="#025214" d="M 1032.5 733.75 C 1023.460938 736.882812 1015.917969 738.941406 1006.25 738.75 L 1007.5 736.25 C 1010.730469 735.421875 1013.984375 734.71875 1017.265625 734.140625 L 1020.011719 733.601562 C 1024.605469 732.757812 1028.039062 732.40625 1032.5 733.75 " fill-opacity="1" fill-rule="nonzero"/><path fill="#01621d" d="M 1138.75 672.5 L 1141.25 672.5 C 1140 676.25 1140 676.25 1137.003906 679.078125 C 1135.773438 680.078125 1134.546875 681.078125 1133.28125 682.109375 L 1129.582031 685.171875 L 1126.25 687.5 L 1122.5 687.5 C 1126.832031 681.285156 1132.492188 676.691406 1138.75 672.5 M 290 1011.25 L 292.5 1011.25 C 297.320312 1018.480469 297.320312 1018.480469 297.832031 1022.808594 C 297.816406 1025.207031 297.667969 1027.605469 297.5 1030 L 295 1030 L 294.222656 1026.851562 L 293.203125 1022.734375 L 292.191406 1018.648438 C 291.546875 1016.15625 290.816406 1013.691406 290 1011.25 " fill-opacity="1" fill-rule="nonzero"/><path fill="#025518" d="M 1093.75 707.5 L 1093.75 710 L 1073.75 720 L 1073.75 716.25 C 1076.375 714.78125 1079.003906 713.324219 1081.640625 711.875 L 1083.894531 710.609375 C 1087.449219 708.664062 1089.632812 707.5 1093.75 707.5 " fill-opacity="1" fill-rule="nonzero"/><path fill="#01621d" d="M 638.75 1003.75 L 640 1003.75 C 641.640625 1009.980469 640.761719 1014.78125 639.339844 1020.914062 C 638.621094 1023.878906 638.621094 1023.878906 638.75 1027.5 L 636.25 1027.5 L 635 1031.25 C 635.609375 1021.902344 636.667969 1012.886719 638.75 1003.75 M 628.75 1058.75 L 630 1058.75 C 631.027344 1062.964844 631.351562 1065.832031 630.3125 1070.078125 L 629.601562 1072.234375 C 627.683594 1078.464844 626.433594 1084.894531 625 1091.25 L 623.75 1091.25 C 624.746094 1080.300781 626.777344 1069.554688 628.75 1058.75 " fill-opacity="1" fill-rule="nonzero"/><path fill="#035114" d="M 461.25 1043.75 L 463.75 1043.75 C 462.101562 1049.519531 459.734375 1053.875 456.25 1058.75 L 452.5 1057.5 C 453.898438 1055.203125 455.304688 1052.910156 456.71875 1050.625 L 459.089844 1046.757812 Z M 461.25 1043.75 " fill-opacity="1" fill-rule="nonzero"/><path fill="#016925" d="M 87.5 1010 L 90 1011.25 L 72.5 1028.75 L 72.5 1025 C 76.636719 1019.195312 81.746094 1014.183594 87.5 1010 " fill-opacity="1" fill-rule="nonzero"/><path fill="#035114" d="M 751.25 1087.5 L 753.75 1087.5 C 751.984375 1093.535156 749.460938 1098.394531 746.25 1103.75 L 743.75 1102.5 C 745.394531 1096.746094 747.613281 1092.269531 751.25 1087.5 " fill-opacity="1" fill-rule="nonzero"/><path fill="#01621d" d="M 1100 842.5 C 1104.25 844.335938 1107.0625 846.726562 1110.3125 850 L 1112.988281 852.65625 L 1115 855 L 1115 857.5 C 1111.417969 855.894531 1108.78125 854.285156 1106.25 851.25 L 1106.25 848.75 L 1103.828125 847.734375 L 1101.25 846.25 Z M 1075 816.25 C 1080.09375 818.261719 1083.457031 821.921875 1087.1875 825.78125 L 1089.105469 827.734375 C 1090.660156 829.320312 1092.207031 830.90625 1093.75 832.5 L 1090 832.5 C 1084.1875 828.238281 1079.355469 823.246094 1075 817.5 Z M 492.5 997.5 C 494.941406 998.351562 494.941406 998.351562 497.5 1000 C 498.261719 1002.980469 498.261719 1002.980469 498.4375 1006.40625 L 498.652344 1009.855469 L 498.75 1012.5 L 496.25 1012.5 C 492.5 999.5 492.5 999.5 492.5 997.5 " fill-opacity="1" fill-rule="nonzero"/><path fill="#035114" d="M 1141.25 886.25 C 1146.105469 888.1875 1148.789062 891.257812 1152.1875 895.15625 L 1155.214844 898.605469 L 1157.5 901.25 L 1153.75 901.25 C 1148.871094 898.125 1145.457031 894.546875 1142.578125 889.53125 Z M 1141.25 886.25 " fill-opacity="1" fill-rule="nonzero"/><path fill="#01621d" d="M 511.25 1083.75 L 513.75 1083.75 C 514.171875 1085.726562 514.589844 1087.707031 515 1089.6875 L 515.703125 1093.027344 C 516.25 1096.25 516.25 1096.25 516.25 1101.25 L 513.75 1101.25 C 512.078125 1095.199219 510.933594 1090.082031 511.25 1083.75 M 203.75 998.75 L 205 1001.25 L 208.75 1002.5 L 205 1005 C 204.21875 1008.417969 204.21875 1008.417969 203.75 1012.5 C 202.980469 1015.851562 202.109375 1019.167969 201.25 1022.5 L 200 1022.5 C 200.574219 1014.3125 201.511719 1006.65625 203.75 998.75 M 1057.5 797.5 C 1062.59375 799.511719 1065.957031 803.171875 1069.6875 807.03125 L 1071.605469 808.984375 C 1073.160156 810.570312 1074.707031 812.15625 1076.25 813.75 L 1072.5 813.75 C 1070.121094 811.738281 1070.121094 811.738281 1067.578125 809.0625 L 1065.042969 806.425781 L 1062.5 803.75 L 1059.683594 800.996094 L 1057.5 798.75 Z M 1057.5 797.5 " fill-opacity="1" fill-rule="nonzero"/><path fill="#01641f" d="M 1115 693.75 L 1115 696.25 C 1113.21875 697.863281 1113.21875 697.863281 1110.859375 699.53125 L 1108.53125 701.222656 C 1106.25 702.5 1106.25 702.5 1102.5 702.5 L 1102.5 705 L 1098.75 703.75 C 1101.453125 700.859375 1104.21875 698.730469 1107.578125 696.640625 L 1110.199219 694.984375 C 1112.5 693.75 1112.5 693.75 1115 693.75 " fill-opacity="1" fill-rule="nonzero"/><path fill="#035114" d="M 215 1076.25 L 217.5 1076.25 L 216.644531 1084.550781 C 216.28125 1087.28125 215.722656 1089.847656 215 1092.5 L 212.5 1092.5 C 212.675781 1090.261719 212.859375 1088.019531 213.046875 1085.78125 C 213.148438 1084.535156 213.25 1083.289062 213.355469 1082.003906 C 213.75 1078.75 213.75 1078.75 215 1076.25 " fill-opacity="1" fill-rule="nonzero"/><path fill="#01621d" d="M 837.5 1022.5 L 840 1022.5 C 838.792969 1034.261719 838.792969 1034.261719 837.5 1040 L 835 1040 C 835.179688 1038.019531 835.359375 1036.039062 835.546875 1034.0625 C 835.648438 1032.960938 835.75 1031.859375 835.855469 1030.722656 C 836.195312 1027.941406 836.742188 1025.199219 837.5 1022.5 M 497.5 1013.75 L 500 1013.75 L 502.5 1031.25 L 500 1031.25 C 498.011719 1025.160156 497.234375 1020.238281 497.5 1013.75 " fill-opacity="1" fill-rule="nonzero"/><path fill="#035114" d="M 1123.75 867.5 C 1128.335938 869.378906 1130.863281 872.046875 1134.0625 875.78125 L 1136.738281 878.878906 L 1138.75 881.25 L 1135 881.25 C 1132.488281 879.195312 1132.488281 879.195312 1129.84375 876.484375 L 1127.175781 873.804688 C 1125 871.25 1125 871.25 1123.75 867.5 " fill-opacity="1" fill-rule="nonzero"/><path fill="#01621d" d="M 187.5 1083.75 L 188.75 1083.75 C 188.785156 1085.910156 188.808594 1088.074219 188.828125 1090.234375 L 188.871094 1093.882812 C 188.753906 1097.355469 188.445312 1100.40625 187.5 1103.75 L 185 1105 L 183.75 1108.75 C 184.429688 1100.332031 185.679688 1091.996094 187.5 1083.75 " fill-opacity="1" fill-rule="nonzero"/><path fill="#025516" d="M 1192.5 600 L 1195 600 C 1194.28125 605.945312 1191.8125 609.960938 1188.75 615 L 1186.25 612.5 Z M 1192.5 600 " fill-opacity="1" fill-rule="nonzero"/><path fill="#035114" d="M 1200 583.75 L 1202.5 583.75 C 1201.667969 589.234375 1199.765625 593.726562 1197.5 598.75 L 1195 597.5 C 1195.757812 592.339844 1197.546875 588.335938 1200 583.75 M 647.5 355 C 652.101562 356.921875 654.984375 359.726562 658.4375 363.28125 L 661.464844 366.378906 L 663.75 368.75 L 662.5 372.5 L 660.625 370 C 657.15625 365.835938 653.398438 362.113281 649.511719 358.339844 L 647.5 356.25 Z M 647.5 355 " fill-opacity="1" fill-rule="nonzero"/><path fill="#01621e" d="M 390 233.75 L 392.96875 235 C 396.054688 236.398438 396.054688 236.398438 398.75 236.25 C 401.25 243.28125 401.25 243.28125 401.25 247.5 C 399.367188 245.683594 397.492188 243.859375 395.625 242.03125 L 392.460938 238.957031 L 390 236.25 Z M 390 233.75 " fill-opacity="1" fill-rule="nonzero"/><path fill="#035114" d="M 470 1027.5 L 473.75 1028.75 L 471.25 1030 L 470.078125 1033.59375 C 468.75 1037.5 468.75 1037.5 466.71875 1039.84375 L 465 1041.25 L 463.75 1038.75 C 464.996094 1036.042969 464.996094 1036.042969 466.796875 1032.96875 L 468.589844 1029.871094 Z M 776.25 1042.5 L 778.75 1042.5 C 777.175781 1048.136719 775.121094 1051.863281 771.25 1056.25 L 770 1052.5 C 771.15625 1049.945312 771.15625 1049.945312 772.890625 1047.265625 L 774.59375 1044.554688 Z M 785 1026.25 L 787.5 1026.25 C 785.925781 1031.886719 783.871094 1035.613281 780 1040 C 780 1035 780 1035 781.09375 1032.597656 Z M 785 1026.25 " fill-opacity="1" fill-rule="nonzero"/><path fill="#01621d" d="M 130.46875 996.171875 L 135.183594 996.207031 L 138.75 996.25 L 138.75 997.5 L 126.25 997.5 L 126.25 1000 L 113.75 998.75 L 113.75 997.5 C 119.398438 996.394531 124.71875 996.117188 130.46875 996.171875 " fill-opacity="1" fill-rule="nonzero"/><path fill="#01631f" d="M 1202.5 393.75 L 1205 393.75 L 1210 408.75 L 1206.25 407.5 C 1205.0625 405.324219 1205.0625 405.324219 1204.140625 402.65625 L 1203.1875 400.011719 C 1202.5 397.5 1202.5 397.5 1202.5 393.75 " fill-opacity="1" fill-rule="nonzero"/><path fill="#01621d" d="M 523.75 720 C 526.300781 722.023438 528.800781 724.105469 531.25 726.25 L 531.25 728.75 L 533.671875 729.84375 L 536.25 731.25 L 537.5 733.75 C 534.089844 732.847656 531.703125 731.691406 529.164062 729.222656 C 527.246094 727.035156 525.398438 724.898438 523.75 722.5 Z M 523.75 720 " fill-opacity="1" fill-rule="nonzero"/><path fill="#025114" d="M 663.75 373.75 C 665.917969 374.058594 665.917969 374.058594 668.75 375 C 671.425781 377.308594 671.425781 377.308594 674.0625 380.078125 L 676.738281 382.855469 L 678.75 385 L 675 385 C 672.171875 382.855469 672.171875 382.855469 669.140625 380.078125 L 666.078125 377.308594 L 663.75 375 Z M 663.75 373.75 " fill-opacity="1" fill-rule="nonzero"/><path fill="#01621d" d="M 400 997.5 L 406.25 997.5 C 407.699219 1001.847656 407.136719 1004.324219 406.25 1008.75 L 402.5 1007.5 L 403.75 1000 Z M 1165 912.5 C 1169.019531 914.261719 1171.652344 916.378906 1174.6875 919.53125 L 1177.011719 921.921875 L 1178.75 923.75 C 1175 923.75 1175 923.75 1171.875 922.34375 C 1168.75 920 1168.75 920 1166.484375 916.015625 Z M 685 1008.75 C 688.75 1013.75 688.75 1013.75 689.6875 1017.34375 C 690.011719 1021.40625 689.601562 1024.777344 688.75 1028.75 L 687.5 1028.75 Z M 1183.75 356.25 L 1187.5 357.5 C 1188.960938 360.082031 1188.960938 360.082031 1190.234375 363.203125 L 1191.539062 366.332031 L 1192.5 368.75 C 1190.136719 367.824219 1190.136719 367.824219 1187.5 366.25 C 1186.191406 363.820312 1186.191406 363.820312 1185.3125 361.09375 L 1184.394531 358.351562 Z M 1166.25 330 L 1170 331.25 C 1171.734375 333.558594 1171.734375 333.558594 1173.359375 336.328125 L 1175.015625 339.105469 L 1176.25 341.25 C 1173.359375 340.546875 1173.359375 340.546875 1170 338.75 C 1168.316406 335.898438 1167.355469 333.148438 1166.25 330 M 795 1007.5 L 797.5 1007.5 C 795.3125 1014.6875 795.3125 1014.6875 792.5 1017.5 L 791.25 1013.75 C 792.890625 1010.390625 792.890625 1010.390625 795 1007.5 M 151.25 1000 C 153.101562 1000.5625 154.949219 1001.136719 156.796875 1001.71875 L 159.917969 1002.683594 L 162.5 1003.75 L 163.75 1006.25 C 161.898438 1005.933594 160.050781 1005.585938 158.203125 1005.234375 L 155.082031 1004.664062 L 152.5 1003.75 Z M 151.25 1000 " fill-opacity="1" fill-rule="nonzero"/><path fill="#025516" d="M 637.5 343.75 C 641.136719 345.179688 642.714844 346.5 645.3125 349.53125 L 647.5 352.5 C 644.609375 351.640625 644.609375 351.640625 641.25 350 C 638.984375 346.71875 638.984375 346.71875 637.5 343.75 " fill-opacity="1" fill-rule="nonzero"/></svg>