<svg xmlns="http://www.w3.org/2000/svg" xmlns:xlink="http://www.w3.org/1999/xlink" width="2000" zoomAndPan="magnify" viewBox="0 0 1500 187.499995" height="250" preserveAspectRatio="xMidYMid meet" version="1.0"><defs><clipPath id="b411c0ed66"><path d="M 1.996094 2.746094 L 1498.003906 2.746094 L 1498.003906 184.511719 L 1.996094 184.511719 Z M 1.996094 2.746094 " clip-rule="nonzero"/></clipPath><clipPath id="ae7d650eb1"><path d="M 535 2.746094 L 904 2.746094 L 904 61 L 535 61 Z M 535 2.746094 " clip-rule="nonzero"/></clipPath><clipPath id="46a0a6a002"><path d="M 52 2.746094 L 639 2.746094 L 639 150 L 52 150 Z M 52 2.746094 " clip-rule="nonzero"/></clipPath><clipPath id="c80bd9d039"><path d="M 169 2.746094 L 1102 2.746094 L 1102 148 L 169 148 Z M 169 2.746094 " clip-rule="nonzero"/></clipPath><clipPath id="fbd837a1b8"><path d="M 279 2.746094 L 1150 2.746094 L 1150 60 L 279 60 Z M 279 2.746094 " clip-rule="nonzero"/></clipPath><clipPath id="97439fa027"><path d="M 486 2.746094 L 1124 2.746094 L 1124 42 L 486 42 Z M 486 2.746094 " clip-rule="nonzero"/></clipPath><clipPath id="eb83528bc8"><path d="M 187 2.746094 L 1084 2.746094 L 1084 133 L 187 133 Z M 187 2.746094 " clip-rule="nonzero"/></clipPath><clipPath id="916519d9d2"><path d="M 137 2.746094 L 1203 2.746094 L 1203 59 L 137 59 Z M 137 2.746094 " clip-rule="nonzero"/></clipPath></defs><g clip-path="url(#b411c0ed66)"></g><path fill="#017938" d="M 192.878906 26.117188 C 201.742188 26.023438 210.609375 25.953125 219.472656 25.90625 C 222.484375 25.890625 225.496094 25.863281 228.507812 25.832031 C 232.855469 25.78125 237.199219 25.761719 241.546875 25.746094 C 242.878906 25.726562 244.210938 25.707031 245.582031 25.683594 C 255.773438 25.683594 264.566406 27.3125 273.621094 32.109375 C 278.34375 35.988281 282.519531 40.378906 286.160156 45.285156 C 288.929688 53.59375 288.332031 63.738281 286.65625 72.269531 C 284.242188 79.769531 280.554688 85.574219 275.132812 91.269531 C 269.96875 95.660156 264.160156 98.648438 258.046875 101.511719 C 258.859375 105 259.921875 108.414062 261.226562 111.75 L 262.359375 114.667969 L 263.558594 117.722656 L 264.773438 120.847656 C 266.84375 126.132812 268.988281 131.347656 271.386719 136.492188 C 273.382812 141.125 273.382812 141.125 273.382812 146.234375 C 266.417969 147.195312 259.484375 147.746094 252.457031 147.992188 L 247.875 148.183594 L 243.992188 147.515625 C 240.84375 143.101562 238.921875 138.363281 236.988281 133.324219 L 235.28125 128.878906 L 233.527344 124.273438 L 231.734375 119.625 C 227.378906 108.238281 227.378906 108.238281 227.378906 105.34375 L 205.65625 105.34375 L 205.175781 110.808594 C 204.433594 118.25 203.183594 125.550781 201.824219 132.898438 L 201.132812 136.753906 L 200.464844 140.410156 L 199.863281 143.714844 L 199.265625 146.234375 L 197.988281 147.515625 C 196.117188 147.640625 194.238281 147.679688 192.363281 147.683594 L 188.917969 147.6875 L 185.289062 147.671875 L 181.679688 147.6875 L 178.230469 147.683594 L 175.046875 147.679688 C 172.433594 147.515625 172.433594 147.515625 169.875 146.234375 C 171.691406 131.011719 174.367188 116.011719 177.222656 100.953125 L 178.589844 93.703125 C 179.277344 90.042969 179.96875 86.386719 180.660156 82.726562 C 182.113281 75.03125 183.539062 67.328125 184.941406 59.621094 L 186.484375 51.207031 C 186.804688 49.457031 187.121094 47.707031 187.4375 45.953125 C 187.867188 43.546875 188.3125 41.144531 188.753906 38.742188 L 189.492188 34.691406 C 190.265625 31.464844 191.347656 29.035156 192.878906 26.117188 M 456.113281 26.117188 C 461.617188 25.796875 467.132812 25.882812 472.644531 25.878906 L 477.367188 25.832031 L 481.863281 25.824219 L 486.019531 25.808594 L 489.335938 26.117188 L 491.894531 28.675781 C 492.648438 31.800781 492.648438 31.800781 493.269531 35.773438 L 494 40.261719 L 494.769531 45.125 C 497.675781 62.804688 501.269531 80.257812 505.132812 97.75 C 506.105469 102.222656 507.007812 106.703125 507.890625 111.195312 C 508.539062 114.433594 509.199219 117.671875 509.871094 120.902344 L 511.21875 127.46875 L 511.921875 130.824219 C 512.984375 136.027344 513.949219 140.890625 513.617188 146.234375 C 504.277344 147.25 494.90625 148.078125 485.503906 147.515625 L 482.949219 146.234375 L 479.113281 127.070312 L 429.277344 125.789062 L 426.722656 132.179688 C 425.519531 134.417969 424.269531 136.625 422.96875 138.808594 L 421.019531 142.136719 C 419.054688 144.957031 419.054688 144.957031 415.222656 147.515625 C 412.207031 147.804688 412.207031 147.804688 408.699219 147.761719 L 404.890625 147.738281 L 400.925781 147.671875 L 396.914062 147.640625 C 393.648438 147.609375 390.378906 147.566406 387.109375 147.515625 C 387.859375 142.484375 389.386719 138.914062 391.976562 134.558594 L 394.210938 130.765625 L 396.613281 126.75 L 399.085938 122.566406 C 401.472656 118.527344 403.875 114.492188 406.277344 110.457031 C 408.382812 106.890625 410.488281 103.324219 412.585938 99.753906 L 414.082031 97.222656 C 418.910156 89.019531 423.652344 80.769531 428.402344 72.519531 C 434.765625 61.46875 441.167969 50.441406 447.648438 39.457031 L 449.789062 35.816406 L 451.75 32.503906 L 453.46875 29.59375 C 454.835938 27.398438 454.835938 27.398438 456.113281 26.117188 " fill-opacity="1" fill-rule="nonzero"/><path fill="#010001" d="M 1078.421875 26.117188 C 1080.207031 25.988281 1081.992188 25.921875 1083.78125 25.914062 L 1087.234375 25.875 L 1091 25.859375 L 1094.867188 25.835938 C 1097.578125 25.824219 1100.289062 25.816406 1103 25.8125 C 1107.121094 25.800781 1111.242188 25.761719 1115.359375 25.71875 C 1117.996094 25.710938 1120.632812 25.703125 1123.265625 25.699219 L 1126.972656 25.652344 C 1136.625 25.683594 1144.414062 27.558594 1152.855469 32.269531 C 1157.890625 36.273438 1161.601562 40.363281 1164.4375 46.164062 C 1166.171875 54.523438 1166.050781 62.710938 1163.960938 71.003906 C 1161.558594 78.027344 1157.753906 83.484375 1152.539062 88.734375 C 1146.925781 93.222656 1141.320312 96.339844 1134.648438 98.957031 L 1135.71875 101.410156 C 1139.113281 109.1875 1142.492188 116.96875 1145.863281 124.753906 C 1147.144531 127.699219 1148.4375 130.640625 1149.742188 133.578125 L 1151.5 137.609375 L 1152.992188 140.984375 L 1153.816406 143.679688 L 1152.539062 147.515625 L 1132.09375 147.515625 C 1127.304688 138.394531 1123.476562 128.953125 1119.632812 119.402344 L 1117.671875 114.554688 C 1116.085938 110.632812 1114.503906 106.710938 1112.925781 102.789062 L 1084.8125 101.511719 L 1083.855469 108.0625 C 1082.5625 116.441406 1081.117188 124.792969 1079.621094 133.136719 L 1078.945312 136.96875 L 1078.296875 140.546875 L 1077.71875 143.773438 L 1077.144531 146.234375 L 1075.867188 147.515625 C 1072.632812 147.605469 1069.4375 147.632812 1066.203125 147.59375 L 1063.449219 147.578125 C 1061.203125 147.558594 1058.949219 147.539062 1056.699219 147.515625 L 1055.421875 144.957031 C 1055.75 142.074219 1055.75 142.074219 1056.445312 138.414062 L 1057.226562 134.25 L 1058.101562 129.699219 L 1058.992188 124.976562 C 1059.785156 120.765625 1060.585938 116.554688 1061.394531 112.34375 C 1062.214844 108.019531 1063.035156 103.695312 1063.851562 99.367188 L 1064.828125 94.199219 L 1065.3125 91.625 L 1066.769531 83.925781 C 1068.582031 74.367188 1070.363281 64.800781 1072.078125 55.226562 L 1072.628906 52.160156 C 1073.28125 48.511719 1073.929688 44.863281 1074.574219 41.210938 C 1074.992188 38.839844 1075.414062 36.46875 1075.835938 34.09375 L 1076.519531 30.21875 L 1077.144531 27.398438 Z M 1078.421875 26.117188 " fill-opacity="1" fill-rule="nonzero"/><path fill="#017938" d="M 315.550781 26.117188 C 318.140625 26.007812 320.730469 25.960938 323.320312 25.972656 L 328.359375 25.972656 L 333.84375 25.992188 L 339.425781 26 C 344.332031 26.003906 349.238281 26.015625 354.140625 26.03125 C 359.144531 26.042969 364.144531 26.050781 369.148438 26.054688 C 378.96875 26.070312 388.789062 26.089844 398.609375 26.117188 C 400.300781 31.1875 399.152344 35.242188 398.132812 40.335938 L 397.59375 43.203125 C 397.117188 45.609375 396.605469 48.007812 396.054688 50.398438 L 394.777344 51.675781 C 393.050781 51.832031 391.320312 51.902344 389.589844 51.9375 L 386.253906 52.015625 L 382.632812 52.078125 L 378.941406 52.160156 C 375.035156 52.242188 371.128906 52.320312 367.222656 52.394531 L 359.300781 52.5625 C 352.808594 52.699219 346.320312 52.828125 339.828125 52.953125 L 335.996094 73.398438 L 343.976562 73.074219 C 346.566406 72.976562 349.15625 72.878906 351.742188 72.78125 C 353.523438 72.714844 355.304688 72.644531 357.085938 72.570312 C 366.789062 72.171875 376.199219 71.957031 385.832031 73.398438 C 385.226562 77.207031 384.613281 81.015625 383.996094 84.820312 L 383.472656 88.113281 L 382.960938 91.242188 L 382.496094 94.144531 L 382 96.398438 L 380.722656 97.679688 C 377.035156 97.882812 373.382812 98.011719 369.695312 98.082031 L 366.347656 98.164062 C 362.804688 98.246094 359.265625 98.324219 355.722656 98.394531 L 348.539062 98.5625 C 342.652344 98.703125 336.769531 98.828125 330.886719 98.957031 L 327.050781 121.957031 L 383.277344 121.957031 C 380.722656 139.847656 380.722656 139.847656 378.164062 147.515625 L 293.828125 147.515625 C 292.691406 141.832031 292.507812 139.769531 293.609375 134.441406 L 294.453125 130.234375 L 295.425781 125.550781 C 296.132812 122.042969 296.835938 118.535156 297.535156 115.023438 L 298.140625 112.019531 C 300.109375 102.175781 301.964844 92.316406 303.816406 82.449219 L 304.765625 77.386719 C 306.050781 70.566406 307.328125 63.738281 308.605469 56.914062 C 309.511719 52.054688 310.425781 47.199219 311.34375 42.339844 L 312.179688 37.832031 L 312.960938 33.714844 L 313.636719 30.097656 L 314.273438 27.398438 Z M 819.019531 26.117188 C 821.648438 26 824.277344 25.96875 826.90625 25.972656 L 829.402344 25.972656 C 832.132812 25.972656 834.863281 25.984375 837.59375 25.992188 L 843.261719 26 C 848.242188 26.003906 853.222656 26.015625 858.203125 26.03125 C 863.285156 26.042969 868.363281 26.050781 873.441406 26.054688 C 883.414062 26.070312 893.386719 26.089844 903.359375 26.117188 C 902.992188 28.703125 902.621094 31.285156 902.242188 33.867188 L 901.613281 38.222656 C 900.796875 42.773438 899.515625 47.230469 898.246094 51.675781 L 842.023438 51.675781 L 840.742188 63.175781 C 840.332031 66.160156 839.90625 69.140625 839.464844 72.121094 L 843.765625 72.101562 C 849.019531 72.078125 854.273438 72.0625 859.527344 72.050781 C 861.800781 72.042969 864.078125 72.035156 866.351562 72.027344 C 869.621094 72.007812 872.886719 72.003906 876.15625 71.996094 L 879.25 71.976562 C 886.457031 71.976562 886.457031 71.976562 889.300781 73.398438 C 888.695312 77.207031 888.082031 81.015625 887.464844 84.820312 L 886.941406 88.113281 L 886.433594 91.242188 L 885.964844 94.144531 L 885.46875 96.398438 L 884.191406 97.679688 C 880.421875 97.789062 876.652344 97.828125 872.882812 97.804688 L 869.453125 97.796875 C 865.820312 97.789062 862.1875 97.773438 858.554688 97.757812 C 856.097656 97.75 853.640625 97.746094 851.183594 97.742188 C 845.148438 97.726562 839.113281 97.707031 833.078125 97.679688 C 832.960938 98.882812 832.960938 98.882812 832.84375 100.113281 L 832.515625 103.429688 C 832.414062 104.496094 832.308594 105.5625 832.203125 106.664062 C 831.703125 111.34375 831.105469 116.011719 830.519531 120.679688 L 888.023438 121.957031 L 885.46875 132.179688 C 885.171875 134.25 884.929688 136.324219 884.75 138.410156 C 884.484375 141.523438 884.316406 143.425781 882.914062 146.234375 L 796.019531 146.234375 C 796.808594 139.9375 797.621094 133.847656 798.769531 127.632812 L 799.648438 122.847656 L 800.597656 117.746094 L 801.585938 112.386719 C 802.277344 108.644531 802.96875 104.902344 803.664062 101.160156 C 804.539062 96.441406 805.410156 91.726562 806.28125 87.007812 C 809.320312 70.527344 812.367188 54.046875 815.601562 37.597656 L 816.214844 34.433594 C 816.6875 32.078125 817.207031 29.738281 817.742188 27.398438 Z M 819.019531 26.117188 " fill-opacity="1" fill-rule="nonzero"/><path fill="#017837" d="M 117.40625 24.601562 L 120.027344 24.554688 C 126.003906 24.535156 130.996094 25.53125 136.652344 27.398438 L 139.875 28.359375 C 150.011719 31.9375 157.105469 38.273438 164.191406 46.234375 C 165.644531 48.160156 165.644531 48.160156 167.320312 51.675781 C 167.328125 54.746094 167.328125 54.746094 166.042969 58.066406 C 163.148438 60.238281 160.574219 61.890625 157.417969 63.578125 L 155.011719 64.964844 C 151.617188 66.847656 148.515625 68.222656 144.6875 68.925781 L 141.765625 68.289062 C 139.21875 65.90625 139.21875 65.90625 136.8125 62.777344 C 133.753906 59.167969 131.476562 56.746094 127.46875 54.152344 C 119.394531 52.167969 111.066406 51.8125 102.910156 53.640625 C 95.71875 56.160156 89.976562 59.929688 84.742188 65.414062 C 80.253906 71.117188 76.691406 77.738281 75.316406 84.898438 C 74.601562 92.171875 74.03125 99.417969 76.667969 106.339844 C 79.179688 110.425781 81.644531 113.386719 85.632812 116.078125 C 92.058594 119.425781 97.96875 121.140625 105.214844 121.035156 C 112.460938 120.261719 119.3125 117.800781 125.339844 113.699219 C 129.238281 110.464844 132.589844 107.050781 135.375 102.789062 C 141.175781 104.664062 145.296875 107.957031 149.832031 111.894531 L 151.960938 113.707031 C 153.679688 115.171875 155.390625 116.644531 157.097656 118.125 C 153.707031 125.730469 147.609375 130.964844 141.0625 135.929688 C 130.492188 143.039062 118.789062 147.875 105.984375 148.792969 C 92.652344 149.574219 80.820312 147.691406 68.609375 142.164062 C 60.988281 138.066406 55.292969 132.613281 50.355469 125.535156 C 44.855469 116.351562 43.261719 107.734375 43.050781 97.117188 C 43.296875 83.953125 46.039062 72.828125 52.804688 61.496094 C 54.691406 58.59375 56.660156 55.746094 58.703125 52.953125 L 60.316406 50.648438 C 67.195312 41.683594 77.34375 35.148438 87.484375 30.402344 C 97.582031 26.40625 106.542969 24.613281 117.40625 24.601562 " fill-opacity="1" fill-rule="nonzero"/><path fill="#010001" d="M 967.25 26.117188 C 975.183594 25.992188 983.113281 25.898438 991.046875 25.839844 C 993.738281 25.8125 996.433594 25.777344 999.125 25.734375 C 1026.128906 25.296875 1026.128906 25.296875 1036.410156 29.890625 C 1041.203125 32.566406 1044.394531 35.421875 1047.996094 39.535156 C 1051.328125 45.976562 1052.429688 52.132812 1052.867188 59.34375 C 1052.425781 67.726562 1050.277344 75.011719 1045.890625 82.175781 C 1041.042969 88.890625 1035.707031 94.511719 1028.1875 98.15625 C 1015.703125 102.8125 1003.207031 103.132812 990.011719 102.949219 L 985.21875 102.914062 C 981.359375 102.882812 977.5 102.84375 973.640625 102.789062 L 973.210938 105.265625 L 971.242188 116.605469 L 970.570312 120.496094 C 970.121094 123.089844 969.667969 125.679688 969.214844 128.269531 C 968.75 130.929688 968.289062 133.585938 967.832031 136.246094 L 967.160156 140.101562 L 966.558594 143.585938 L 965.972656 146.234375 L 964.695312 147.515625 C 961.460938 147.605469 958.261719 147.632812 955.03125 147.59375 L 952.277344 147.578125 C 950.027344 147.558594 947.777344 147.539062 945.527344 147.515625 C 946.265625 136.539062 948.039062 125.890625 950.105469 115.09375 L 951.09375 109.835938 C 951.957031 105.246094 952.828125 100.660156 953.703125 96.070312 C 954.402344 92.394531 955.097656 88.714844 955.789062 85.03125 C 959.488281 65.371094 963.257812 45.726562 967.25 26.117188 " fill-opacity="1" fill-rule="nonzero"/><path fill="#017837" d="M 682.292969 26.117188 C 687.136719 26.042969 691.980469 26 696.828125 25.960938 C 698.207031 25.9375 699.585938 25.914062 701.007812 25.894531 L 705.003906 25.871094 L 708.695312 25.828125 L 711.683594 26.117188 L 714.238281 28.675781 C 714.933594 31.710938 714.933594 31.710938 715.464844 35.566406 L 716.085938 39.9375 L 716.722656 44.6875 L 717.402344 49.570312 C 717.871094 52.988281 718.339844 56.410156 718.796875 59.828125 C 719.382812 64.183594 719.988281 68.53125 720.59375 72.882812 C 721.175781 77.058594 721.742188 81.238281 722.3125 85.417969 L 722.96875 90.109375 C 724.105469 98.65625 724.757812 106.945312 724.460938 115.566406 L 727.015625 115.566406 L 727.964844 112.363281 C 729.816406 107.21875 732.226562 102.628906 734.84375 97.839844 C 738.597656 90.859375 742.277344 83.859375 745.785156 76.753906 C 751.40625 65.390625 757.269531 54.15625 763.117188 42.910156 L 765.382812 38.558594 L 767.414062 34.652344 C 768.875 31.820312 770.316406 28.972656 771.742188 26.117188 L 803.6875 26.117188 C 802.652344 31.285156 801.949219 33.84375 799.511719 38.203125 L 797.691406 41.503906 L 795.699219 45.046875 L 791.484375 52.664062 L 789.273438 56.640625 C 786.453125 61.765625 783.664062 66.90625 780.898438 72.0625 C 774.058594 84.765625 767.070312 97.390625 759.933594 109.929688 C 754.554688 119.414062 749.261719 128.949219 744.058594 138.535156 L 742.410156 141.554688 L 740.964844 144.210938 C 739.792969 146.234375 739.792969 146.234375 738.515625 147.515625 C 735.992188 147.640625 733.460938 147.679688 730.933594 147.683594 L 726.265625 147.6875 L 721.34375 147.671875 L 716.441406 147.6875 L 711.765625 147.683594 L 707.453125 147.679688 C 704.015625 147.515625 704.015625 147.515625 701.460938 146.234375 C 700.65625 142.859375 699.972656 139.453125 699.410156 136.027344 L 698.84375 132.785156 C 698.222656 129.226562 697.621094 125.667969 697.015625 122.105469 L 695.738281 114.699219 C 694.84375 109.511719 693.957031 104.324219 693.078125 99.132812 C 691.949219 92.492188 690.808594 85.855469 689.65625 79.21875 C 688.777344 74.113281 687.898438 69.007812 687.023438 63.898438 C 686.605469 61.449219 686.1875 59.003906 685.761719 56.558594 C 685.171875 53.128906 684.589844 49.699219 684.011719 46.265625 L 683.480469 43.21875 C 682.515625 37.429688 682.125 31.984375 682.292969 26.117188 " fill-opacity="1" fill-rule="nonzero"/><path fill="#010001" d="M 1244.542969 26.117188 C 1250.199219 24.796875 1255.449219 24.078125 1261.175781 25.09375 C 1264.351562 26.378906 1265.699219 27.851562 1267.8125 30.535156 C 1271.289062 35.769531 1274.246094 41.28125 1277.15625 46.84375 C 1280.210938 52.597656 1283.601562 58.148438 1286.949219 63.734375 C 1288.324219 66.066406 1289.695312 68.398438 1291.066406 70.734375 C 1295.96875 79.0625 1300.929688 87.359375 1305.921875 95.632812 C 1306.902344 97.257812 1307.878906 98.882812 1308.851562 100.511719 C 1310.214844 102.785156 1311.585938 105.058594 1312.960938 107.328125 L 1315.359375 111.304688 C 1317.109375 114.414062 1317.109375 114.414062 1319.933594 115.566406 L 1320.101562 112.835938 C 1320.832031 102.5625 1322.441406 92.625 1324.414062 82.523438 L 1325.351562 77.605469 C 1326.167969 73.34375 1326.988281 69.082031 1327.816406 64.824219 C 1328.660156 60.457031 1329.5 56.085938 1330.332031 51.714844 C 1331.972656 43.183594 1333.617188 34.648438 1335.269531 26.117188 L 1354.4375 26.117188 C 1355.796875 30.203125 1355.652344 31.527344 1354.828125 35.621094 L 1354.140625 39.113281 L 1353.359375 42.921875 L 1352.566406 46.90625 C 1351.707031 51.210938 1350.835938 55.515625 1349.964844 59.820312 C 1348.777344 65.757812 1347.59375 71.691406 1346.410156 77.628906 L 1345.511719 82.121094 C 1343.671875 91.332031 1341.894531 100.550781 1340.179688 109.785156 L 1339.558594 113.125 C 1338.792969 117.257812 1338.03125 121.390625 1337.277344 125.527344 C 1336.773438 128.304688 1336.261719 131.078125 1335.75 133.851562 L 1334.898438 138.515625 C 1334.105469 141.914062 1333.171875 144.511719 1331.4375 147.515625 C 1328.648438 147.863281 1325.851562 148.109375 1323.050781 148.3125 L 1318.332031 148.761719 L 1313.546875 147.515625 C 1309.835938 143.710938 1307.285156 139.296875 1304.601562 134.734375 L 1302.132812 130.644531 C 1299.921875 126.933594 1297.742188 123.207031 1295.589844 119.464844 C 1293.230469 115.378906 1290.863281 111.300781 1288.484375 107.226562 L 1287.046875 104.765625 C 1282.027344 96.179688 1276.804688 87.71875 1271.519531 79.289062 L 1269.636719 76.285156 L 1267.882812 73.496094 C 1266.324219 70.9375 1264.863281 68.34375 1263.417969 65.722656 L 1261.15625 61.898438 L 1258.597656 60.621094 L 1258.195312 62.785156 C 1256.789062 70.355469 1255.378906 77.925781 1253.964844 85.492188 C 1253.441406 88.300781 1252.917969 91.109375 1252.398438 93.921875 C 1249.785156 107.976562 1247.148438 122.027344 1244.242188 136.027344 L 1243.605469 139.128906 C 1243.105469 141.503906 1242.550781 143.875 1241.988281 146.234375 L 1240.707031 147.515625 C 1237.476562 147.605469 1234.277344 147.632812 1231.046875 147.59375 L 1228.292969 147.578125 C 1226.042969 147.558594 1223.792969 147.539062 1221.542969 147.515625 C 1222.472656 139.230469 1223.902344 131.101562 1225.46875 122.914062 L 1226.261719 118.734375 C 1227.109375 114.269531 1227.957031 109.808594 1228.808594 105.34375 L 1233.160156 82.433594 C 1234.828125 73.65625 1236.476562 64.878906 1238.101562 56.09375 L 1238.648438 53.144531 C 1239.640625 47.8125 1239.640625 47.8125 1240.621094 42.476562 C 1241.046875 40.148438 1241.476562 37.816406 1241.910156 35.488281 L 1242.617188 31.644531 C 1243.265625 28.675781 1243.265625 28.675781 1244.542969 26.117188 " fill-opacity="1" fill-rule="nonzero"/><path fill="#017938" d="M 523.839844 26.117188 L 622.234375 26.117188 C 619.675781 45.285156 619.675781 45.285156 617.121094 51.675781 L 583.898438 52.953125 C 582.394531 60.660156 580.890625 68.367188 579.382812 76.070312 C 577.011719 88.203125 574.6875 100.34375 572.414062 112.492188 C 571.214844 118.875 570.027344 125.257812 568.847656 131.640625 L 567.773438 137.386719 L 567.289062 140.058594 C 566.894531 142.125 566.464844 144.183594 566.007812 146.234375 L 564.730469 147.515625 C 562.734375 147.617188 560.734375 147.660156 558.734375 147.640625 L 555.078125 147.625 L 551.230469 147.59375 L 547.371094 147.578125 C 544.214844 147.5625 541.054688 147.539062 537.894531 147.515625 C 536.527344 142.335938 536.8125 138.523438 537.839844 133.289062 L 538.746094 128.585938 L 539.757812 123.527344 L 540.777344 118.300781 C 541.488281 114.652344 542.207031 111.003906 542.933594 107.355469 C 543.855469 102.703125 544.769531 98.050781 545.675781 93.394531 C 546.550781 88.929688 547.425781 84.46875 548.304688 80.003906 L 548.800781 77.457031 C 549.277344 75.046875 549.753906 72.640625 550.234375 70.230469 L 551.054688 66.09375 C 552.089844 61.261719 553.308594 56.46875 554.507812 51.675781 L 518.726562 51.675781 C 521.285156 35.0625 521.285156 35.0625 523.839844 26.117188 " fill-opacity="1" fill-rule="nonzero"/><path fill="#010001" d="M 1372.328125 26.117188 L 1470.71875 26.117188 C 1470.054688 32.105469 1469.347656 38.101562 1468.164062 44.007812 L 1429.828125 45.285156 C 1426.855469 58.019531 1426.855469 58.019531 1424.214844 70.792969 L 1423.320312 75.4375 L 1422.402344 80.269531 L 1421.417969 85.382812 C 1419.84375 93.550781 1418.285156 101.722656 1416.742188 109.894531 C 1416.054688 113.523438 1415.367188 117.152344 1414.671875 120.777344 C 1414.34375 122.507812 1414.019531 124.242188 1413.691406 125.976562 C 1413.238281 128.394531 1412.78125 130.8125 1412.320312 133.226562 L 1411.535156 137.390625 C 1410.660156 141.125 1410.660156 141.125 1408.105469 147.515625 L 1390.214844 147.515625 C 1388.824219 143.332031 1389.054688 141.773438 1389.863281 137.535156 L 1390.578125 133.738281 L 1391.382812 129.613281 L 1392.203125 125.304688 C 1393.074219 120.726562 1393.960938 116.152344 1394.847656 111.574219 L 1396.550781 102.648438 C 1400.289062 83.082031 1404.175781 63.539062 1408.105469 44.007812 L 1369.769531 44.007812 C 1371.046875 31.230469 1371.046875 31.230469 1372.328125 26.117188 " fill-opacity="1" fill-rule="nonzero"/><path fill="#017938" d="M 638.84375 26.117188 L 666.957031 26.117188 C 666.144531 34.257812 665.25 42.023438 663.6875 49.996094 L 663.109375 53.019531 C 662.507812 56.167969 661.898438 59.3125 661.285156 62.457031 L 660.078125 68.757812 L 658.3125 77.949219 C 656.378906 87.980469 654.554688 98.03125 652.832031 108.101562 C 652.175781 111.949219 651.515625 115.796875 650.851562 119.644531 C 650.511719 121.628906 650.171875 123.617188 649.839844 125.601562 C 649.351562 128.5 648.851562 131.398438 648.347656 134.296875 L 647.90625 136.980469 C 647.148438 141.28125 646.421875 143.820312 643.957031 147.515625 C 641.203125 147.949219 641.203125 147.949219 637.835938 147.886719 L 634.195312 147.851562 C 632.933594 147.820312 631.675781 147.785156 630.378906 147.753906 L 626.535156 147.703125 C 623.398438 147.65625 620.257812 147.59375 617.121094 147.515625 C 615.5625 142.949219 616.109375 139.589844 617.027344 134.898438 L 617.90625 130.304688 L 618.894531 125.328125 L 619.894531 120.144531 C 620.777344 115.578125 621.667969 111.011719 622.566406 106.445312 C 623.980469 99.25 625.371094 92.046875 626.765625 84.84375 C 627.277344 82.207031 627.789062 79.570312 628.304688 76.933594 C 630.601562 65.117188 632.742188 53.28125 634.65625 41.394531 L 635.207031 38.09375 L 635.65625 35.269531 C 636.289062 32.507812 636.289062 32.507812 638.84375 26.117188 " fill-opacity="1" fill-rule="nonzero"/><path fill="#010001" d="M 1195.984375 26.117188 C 1198.992188 26.027344 1202 26.011719 1205.007812 26.039062 L 1210.007812 26.074219 L 1213.875 26.117188 L 1215.152344 28.675781 C 1214.902344 31.160156 1214.902344 31.160156 1214.320312 34.246094 L 1213.675781 37.757812 L 1212.941406 41.585938 L 1212.199219 45.578125 C 1211.40625 49.820312 1210.605469 54.0625 1209.800781 58.304688 C 1208.769531 63.804688 1207.738281 69.308594 1206.710938 74.8125 L 1205.933594 78.953125 C 1203.96875 89.496094 1202.089844 100.054688 1200.289062 110.628906 C 1198.875 118.84375 1197.359375 127.039062 1195.742188 135.214844 L 1195.101562 138.519531 C 1194.582031 141.097656 1194.011719 143.667969 1193.429688 146.234375 L 1192.152344 147.515625 C 1188.917969 147.605469 1185.71875 147.632812 1182.488281 147.59375 L 1179.734375 147.578125 C 1177.484375 147.558594 1175.234375 147.539062 1172.984375 147.515625 C 1173.671875 138.398438 1174.8125 129.53125 1176.585938 120.5625 C 1176.816406 119.375 1177.046875 118.183594 1177.28125 116.957031 C 1178.027344 113.113281 1178.777344 109.269531 1179.53125 105.425781 L 1181.085938 97.425781 C 1182.132812 92.03125 1183.183594 86.636719 1184.234375 81.238281 C 1185.664062 73.917969 1187.066406 66.59375 1188.464844 59.265625 L 1190.296875 49.734375 C 1190.679688 47.734375 1191.0625 45.730469 1191.441406 43.726562 C 1191.96875 40.972656 1192.496094 38.222656 1193.027344 35.472656 L 1193.921875 30.8125 L 1194.707031 27.398438 Z M 1195.984375 26.117188 " fill-opacity="1" fill-rule="nonzero"/><path fill="#fbfcfc" d="M 985.140625 44.007812 C 988.21875 43.511719 988.21875 43.511719 992.0625 43.5 L 996.285156 43.484375 L 1000.714844 43.53125 L 1005.070312 43.484375 C 1013.058594 43.511719 1019 43.96875 1026.03125 47.84375 C 1029.148438 49.757812 1029.148438 49.757812 1031.144531 52.953125 C 1032.054688 58.796875 1031.933594 64.332031 1030.253906 70.019531 C 1028.238281 74.53125 1026.25 77.046875 1022.4375 80.265625 C 1012.570312 85.296875 1003.804688 85.21875 992.886719 85.058594 L 988.390625 85.023438 C 984.753906 84.996094 981.113281 84.953125 977.472656 84.898438 C 977.136719 76.894531 978.40625 69.4375 979.871094 61.578125 L 980.542969 57.734375 L 981.21875 54.050781 L 981.824219 50.714844 C 982.585938 47.84375 982.585938 47.84375 985.140625 44.007812 M 1095.035156 44.007812 C 1100.8125 43.894531 1106.585938 43.828125 1112.367188 43.769531 L 1117.308594 43.671875 C 1130.902344 43.566406 1130.902344 43.566406 1136.289062 45.800781 C 1139.757812 47.84375 1139.757812 47.84375 1142.15625 50.078125 C 1144.214844 54.195312 1144.71875 57.273438 1144.871094 61.898438 C 1144.136719 66.042969 1142.980469 69.664062 1141.039062 73.398438 C 1138.0625 76.917969 1134.625 79.167969 1130.488281 81.214844 C 1126.164062 82.605469 1122.511719 82.632812 1117.972656 82.59375 L 1115.421875 82.582031 C 1112.75 82.566406 1110.082031 82.539062 1107.414062 82.503906 C 1105.597656 82.488281 1103.777344 82.480469 1101.960938 82.46875 C 1097.523438 82.441406 1093.082031 82.398438 1088.644531 82.34375 C 1089.304688 73.128906 1090.539062 64.28125 1092.558594 55.269531 L 1093.28125 51.953125 C 1093.859375 49.304688 1094.445312 46.65625 1095.035156 44.007812 M 215.878906 51.675781 C 221.285156 51.566406 226.6875 51.496094 232.09375 51.4375 L 236.730469 51.339844 L 241.210938 51.300781 L 245.328125 51.238281 C 249.101562 51.675781 249.101562 51.675781 252.628906 53.375 C 255.492188 55.507812 255.492188 55.507812 258.046875 59.34375 C 258.339844 63.324219 257.816406 67 256.769531 70.84375 C 253.917969 74.566406 251.644531 76.621094 247.441406 78.660156 C 243.554688 79.929688 240.464844 80.078125 236.378906 80.039062 L 232.074219 80.011719 L 227.617188 79.949219 L 223.089844 79.914062 C 219.40625 79.882812 215.726562 79.839844 212.046875 79.789062 C 212.667969 70.234375 213.75 61.015625 215.878906 51.675781 M 465.058594 59.34375 L 467.613281 59.34375 C 469.824219 68.492188 471.84375 77.652344 473.605469 86.898438 C 473.769531 87.761719 473.941406 88.628906 474.113281 89.523438 C 474.878906 93.636719 475.28125 97.304688 475.28125 101.511719 L 443.335938 101.511719 C 447.601562 88.714844 447.601562 88.714844 450.605469 84.738281 C 456.253906 76.753906 460.558594 68.011719 465.058594 59.34375 " fill-opacity="1" fill-rule="nonzero"/><path fill="#01621d" d="M 811.355469 60.621094 L 812.632812 60.621094 C 812.703125 62.988281 812.75 65.359375 812.792969 67.730469 L 812.878906 71.726562 C 812.660156 75.5 811.964844 78.5625 810.84375 82.148438 C 809.058594 88.546875 808.023438 95.148438 806.800781 101.671875 L 805.121094 110.546875 L 804.378906 114.492188 C 803.929688 116.847656 803.464844 119.199219 802.984375 121.546875 C 802.28125 125.164062 801.976562 128.746094 801.6875 132.421875 L 801.367188 136.46875 C 801.21875 138.441406 801.140625 140.421875 801.132812 142.402344 L 880.355469 143.679688 C 880.46875 133.183594 880.46875 133.183594 879.078125 123.234375 L 872.691406 123.234375 L 872.691406 121.957031 L 888.023438 121.957031 L 886.828125 126.351562 C 885.570312 131.308594 884.941406 136.183594 884.503906 141.277344 C 884.191406 143.679688 884.191406 143.679688 882.914062 146.234375 L 796.019531 146.234375 C 796.796875 140.03125 797.585938 134.046875 798.734375 127.933594 L 799.585938 123.359375 L 800.496094 118.523438 L 801.4375 113.496094 C 802.257812 109.117188 803.078125 104.738281 803.902344 100.363281 C 804.742188 95.882812 805.582031 91.402344 806.417969 86.921875 C 808.0625 78.152344 809.707031 69.386719 811.355469 60.621094 " fill-opacity="1" fill-rule="nonzero"/><path fill="#01621d" d="M 889.300781 73.398438 C 888.695312 77.207031 888.082031 81.015625 887.464844 84.820312 L 886.941406 88.113281 L 886.433594 91.242188 L 885.964844 94.144531 L 885.46875 96.398438 L 884.191406 97.679688 C 880.421875 97.789062 876.652344 97.828125 872.882812 97.804688 L 869.453125 97.796875 C 865.820312 97.789062 862.1875 97.773438 858.554688 97.757812 C 856.097656 97.75 853.640625 97.746094 851.183594 97.742188 C 845.148438 97.726562 839.113281 97.707031 833.078125 97.679688 L 832.84375 100.113281 L 832.515625 103.429688 C 832.414062 104.496094 832.308594 105.5625 832.203125 106.664062 C 831.703125 111.34375 831.105469 116.011719 830.519531 120.679688 L 859.910156 121.957031 L 859.910156 123.234375 C 855.8125 123.527344 851.714844 123.785156 847.613281 124.035156 L 844.113281 124.28125 L 840.695312 124.484375 L 837.570312 124.683594 C 834.355469 124.511719 834.355469 124.511719 826.6875 121.957031 L 827.964844 100.234375 L 830.519531 100.234375 L 831.800781 95.121094 C 842.59375 93.316406 853.441406 93.824219 864.347656 94.0625 C 866.925781 94.117188 869.503906 94.144531 872.082031 94.175781 L 876.710938 94.261719 L 880.355469 93.84375 C 882.652344 90.402344 883.457031 88.546875 884.351562 84.660156 L 885.46875 79.789062 C 878.9375 77.136719 873.375 76.921875 866.460938 77.074219 L 863.425781 77.109375 C 860.976562 77.136719 858.527344 77.183594 856.078125 77.234375 L 856.078125 74.675781 L 836.910156 74.675781 L 836.910156 73.398438 C 844.492188 73.152344 852.074219 72.90625 859.65625 72.667969 C 862.433594 72.578125 865.207031 72.488281 867.984375 72.402344 L 873.03125 72.238281 C 886.328125 71.910156 886.328125 71.910156 889.300781 73.398438 " fill-opacity="1" fill-rule="nonzero"/><g clip-path="url(#ae7d650eb1)"><path fill="#035114" d="M 535.339844 -593.632812 L 537.207031 -592.003906 L 539.652344 -589.882812 L 542.078125 -587.769531 C 544.230469 -585.878906 544.230469 -585.878906 546.839844 -584.691406 L 546.839844 -582.132812 L 688.679688 -582.132812 L 687.402344 -584.691406 L 684.929688 -585.726562 L 682.292969 -587.246094 C 680.695312 -590.601562 680.695312 -590.601562 679.734375 -593.632812 C 683.804688 -591.882812 686.089844 -589.976562 688.839844 -586.527344 C 691.503906 -583.144531 691.503906 -583.144531 695.070312 -580.855469 L 695.070312 -578.300781 C 676.132812 -578 657.191406 -577.777344 638.253906 -577.636719 C 629.457031 -577.570312 620.660156 -577.484375 611.867188 -577.335938 C 603.375 -577.195312 594.882812 -577.121094 586.390625 -577.085938 C 583.152344 -577.066406 579.917969 -577.019531 576.683594 -576.949219 C 551.992188 -576.441406 551.992188 -576.441406 545.460938 -579.574219 C 541.035156 -582.660156 537.890625 -586.355469 535.339844 -591.078125 Z M 819.019531 26.117188 C 821.648438 26 824.277344 25.96875 826.90625 25.972656 L 829.402344 25.972656 C 832.132812 25.972656 834.863281 25.984375 837.59375 25.992188 L 843.261719 26 C 848.242188 26.003906 853.222656 26.015625 858.203125 26.03125 C 863.285156 26.042969 868.363281 26.050781 873.441406 26.054688 C 883.414062 26.070312 893.386719 26.089844 903.359375 26.117188 C 902.992188 28.703125 902.621094 31.285156 902.242188 33.867188 L 901.613281 38.222656 C 900.796875 42.773438 899.515625 47.230469 898.246094 51.675781 L 842.023438 51.675781 L 840.742188 49.121094 C 844.257812 48.128906 847.363281 47.683594 851.011719 47.695312 L 854.03125 47.695312 L 857.257812 47.71875 L 860.585938 47.722656 C 864.085938 47.730469 867.589844 47.746094 871.09375 47.761719 C 873.46875 47.769531 875.847656 47.773438 878.226562 47.78125 C 884.046875 47.792969 889.871094 47.816406 895.691406 47.84375 C 896.121094 45.394531 896.546875 42.945312 896.96875 40.496094 L 897.6875 36.363281 C 898.371094 32.3125 898.371094 32.3125 898.246094 27.398438 L 895.722656 27.515625 C 877.816406 28.324219 859.96875 28.820312 842.042969 28.625 L 838.023438 28.59375 L 834.46875 28.550781 L 831.800781 28.675781 L 830.519531 29.953125 L 827.566406 29.714844 L 824.132812 29.953125 C 821.273438 31.679688 821.273438 31.679688 819.019531 35.0625 C 817.667969 39.363281 816.902344 43.722656 816.144531 48.160156 L 815.476562 51.785156 C 814.9375 54.726562 814.414062 57.671875 813.910156 60.621094 L 812.632812 60.621094 C 813.191406 52.617188 814.363281 44.78125 815.828125 36.902344 L 816.332031 34.132812 C 816.761719 31.878906 817.246094 29.636719 817.742188 27.398438 Z M 819.019531 26.117188 " fill-opacity="1" fill-rule="nonzero"/></g><path fill="#035114" d="M 315.550781 26.117188 L 398.609375 26.117188 C 400.300781 31.1875 399.152344 35.242188 398.132812 40.335938 L 397.59375 43.203125 C 397.117188 45.609375 396.605469 48.007812 396.054688 50.398438 L 394.777344 51.675781 C 393.050781 51.832031 391.320312 51.902344 389.589844 51.9375 L 386.253906 52.015625 L 382.632812 52.078125 L 378.941406 52.160156 C 375.035156 52.242188 371.128906 52.320312 367.222656 52.394531 L 359.300781 52.5625 C 352.808594 52.699219 346.320312 52.828125 339.828125 52.953125 L 335.996094 73.398438 L 333.441406 73.398438 C 333.585938 70.308594 333.746094 67.222656 333.917969 64.136719 C 333.957031 63.261719 334 62.390625 334.039062 61.496094 C 334.253906 57.851562 334.59375 54.589844 335.808594 51.136719 L 337.273438 49.121094 C 340.730469 47.96875 342.691406 47.6875 346.234375 47.695312 L 349.335938 47.695312 L 352.664062 47.71875 L 356.085938 47.722656 C 359.691406 47.730469 363.296875 47.746094 366.902344 47.761719 C 369.347656 47.769531 371.792969 47.773438 374.238281 47.78125 C 380.234375 47.792969 386.226562 47.816406 392.222656 47.84375 L 392.734375 44.621094 L 393.421875 40.414062 L 394.09375 36.238281 C 394.777344 32.507812 394.777344 32.507812 396.054688 28.675781 L 315.550781 27.398438 Z M 523.839844 26.117188 L 622.234375 26.117188 C 619.675781 45.285156 619.675781 45.285156 617.121094 51.675781 L 583.898438 52.953125 L 580.0625 72.121094 L 577.507812 72.121094 C 578.574219 54.8125 578.574219 54.8125 581.34375 49.121094 C 585.253906 47.816406 587.890625 47.695312 591.980469 47.71875 L 595.960938 47.730469 L 600.109375 47.761719 L 604.304688 47.78125 C 607.726562 47.796875 611.144531 47.816406 614.566406 47.84375 C 616.152344 43.089844 616.820312 38.746094 615.84375 33.785156 C 612.789062 31.3125 612.789062 31.3125 609.453125 29.953125 L 609.453125 27.398438 L 523.839844 27.398438 Z M 523.839844 26.117188 " fill-opacity="1" fill-rule="nonzero"/><g clip-path="url(#46a0a6a002)"><path fill="#01621d" d="M 150.710938 114.289062 L 155.820312 116.847656 L 155.820312 121.957031 C 149.238281 130.75 139.933594 137.390625 130.265625 142.402344 C 117.28125 147.746094 104.652344 149.738281 90.652344 148.792969 C 80.644531 147.1875 71.042969 144.171875 62.539062 138.570312 C 58.882812 135.367188 55.542969 131.976562 52.316406 128.347656 L 53.59375 125.789062 C 57.265625 127.308594 57.265625 127.308594 61.261719 129.625 L 62.378906 132.738281 L 63.816406 136.011719 C 73.289062 142.207031 84.523438 144.226562 95.667969 145.328125 C 108.621094 145.742188 120.730469 141.519531 132.820312 137.292969 L 132.820312 134.734375 C 135.390625 133.035156 135.390625 133.035156 138.808594 131.140625 C 146.195312 126.824219 146.195312 126.824219 151.988281 120.679688 C 151.921875 117.152344 151.921875 117.152344 150.710938 114.289062 M 379.441406 -757.199219 L 638.84375 -757.199219 L 638.84375 -755.921875 L 389.664062 -755.921875 L 389.664062 -753.363281 L 379.441406 -754.644531 Z M 379.441406 -757.199219 " fill-opacity="1" fill-rule="nonzero"/></g><path fill="#035114" d="M 293.828125 136.011719 L 295.105469 136.011719 L 295.105469 143.679688 L 379.441406 143.679688 L 378.164062 147.515625 L 293.828125 147.515625 C 292.390625 140.328125 292.390625 140.328125 293.828125 136.011719 " fill-opacity="1" fill-rule="nonzero"/><path fill="#01621d" d="M 222.742188 47.378906 L 225.925781 47.382812 L 229.21875 47.441406 L 232.492188 47.429688 C 238.152344 47.480469 242.683594 47.75 247.824219 50.398438 L 247.824219 51.675781 L 215.878906 51.675781 L 214.601562 64.453125 C 213.839844 69.585938 212.9375 74.675781 212.046875 79.789062 L 242.714844 79.789062 C 238.878906 82.34375 238.878906 82.34375 235.746094 82.632812 L 232.078125 82.59375 L 228.097656 82.566406 L 223.945312 82.503906 L 219.75 82.46875 C 216.332031 82.4375 212.910156 82.398438 209.488281 82.34375 C 207.539062 76.488281 208.894531 71.128906 209.730469 65.09375 L 210.171875 61.363281 L 210.664062 57.785156 L 211.09375 54.515625 C 212.046875 51.675781 212.046875 51.675781 214.339844 49.40625 C 217.449219 47.679688 219.210938 47.363281 222.742188 47.378906 " fill-opacity="1" fill-rule="nonzero"/><path fill="#01621d" d="M 428 123.234375 C 431.675781 123.125 435.351562 123.082031 439.027344 123.109375 L 442.375 123.117188 C 445.914062 123.121094 449.457031 123.140625 453 123.15625 C 455.394531 123.160156 457.789062 123.167969 460.183594 123.171875 C 466.070312 123.1875 471.953125 123.207031 477.835938 123.234375 L 479.113281 125.789062 L 429.277344 125.789062 L 426.722656 132.179688 C 425.109375 135.222656 423.359375 138.15625 421.613281 141.125 L 419.054688 139.847656 C 421.082031 134.273438 423.753906 127.484375 428 123.234375 M 261.882812 119.402344 L 264.4375 119.402344 L 265.746094 122.855469 L 267.472656 127.386719 L 269.179688 131.882812 C 270.671875 135.847656 270.671875 135.847656 272.3125 138.789062 C 273.382812 141.125 273.382812 141.125 273.382812 146.234375 C 266.417969 147.195312 259.484375 147.746094 252.457031 147.992188 L 247.875 148.183594 L 243.992188 147.515625 C 241.328125 144.175781 240.289062 141.664062 239.28125 137.53125 L 238.878906 134.734375 L 241.4375 136.011719 L 242.632812 139.207031 L 243.992188 142.402344 C 248.800781 144.003906 253.285156 143.816406 258.289062 143.761719 L 261.191406 143.742188 C 263.550781 143.726562 265.910156 143.707031 268.269531 143.679688 C 268.53125 138.886719 267.917969 135.832031 265.796875 131.539062 C 263.882812 127.492188 262.460938 123.886719 261.882812 119.402344 M 574.953125 78.511719 L 577.507812 78.511719 C 576.566406 91.300781 574.046875 103.78125 571.679688 116.367188 L 570.402344 123.210938 C 569.371094 128.753906 568.332031 134.300781 567.285156 139.847656 L 564.730469 139.847656 C 564.4375 132.246094 565.542969 125.261719 566.964844 117.804688 L 567.652344 114.113281 C 569.898438 102.207031 572.382812 90.351562 574.953125 78.511719 " fill-opacity="1" fill-rule="nonzero"/><path fill="#025214" d="M 380.722656 83.621094 L 383.277344 83.621094 C 383.097656 85.726562 382.910156 87.828125 382.71875 89.933594 L 382.402344 93.480469 L 382 96.398438 L 380.722656 97.679688 C 376.945312 97.882812 373.195312 98.011719 369.414062 98.082031 L 365.980469 98.164062 C 362.351562 98.246094 358.71875 98.324219 355.082031 98.394531 L 347.714844 98.5625 C 341.679688 98.699219 335.644531 98.832031 329.605469 98.957031 L 328.328125 95.121094 L 378.164062 93.84375 Z M 380.722656 83.621094 " fill-opacity="1" fill-rule="nonzero"/><path fill="#035114" d="M 700.179688 133.457031 L 702.738281 136.011719 C 702.898438 140.644531 702.898438 140.644531 702.738281 144.957031 C 708.386719 144.75 714.027344 144.464844 719.667969 144.160156 L 724.523438 143.984375 C 728.898438 143.726562 732.976562 143.421875 737.238281 142.402344 C 740.082031 139.992188 740.835938 138.222656 742.351562 134.734375 L 744.90625 134.734375 C 743.4375 139.703125 742.199219 143.800781 738.515625 147.515625 C 734.957031 148.113281 734.957031 148.113281 730.683594 148.058594 L 726.039062 148.023438 L 721.1875 147.914062 L 716.316406 147.875 C 704.445312 147.730469 704.445312 147.730469 701.460938 146.234375 C 700.929688 143.316406 700.929688 143.316406 700.660156 139.769531 L 700.371094 136.207031 Z M 700.179688 133.457031 " fill-opacity="1" fill-rule="nonzero"/><g clip-path="url(#c80bd9d039)"><path fill="#01621d" d="M 199.265625 124.511719 L 201.824219 124.511719 C 201.675781 126.910156 201.511719 129.304688 201.34375 131.699219 C 201.253906 133.035156 201.164062 134.367188 201.074219 135.742188 C 200.535156 139.9375 199.453125 143.554688 197.988281 147.515625 C 193.78125 147.550781 189.578125 147.574219 185.371094 147.59375 L 181.742188 147.625 L 178.273438 147.640625 L 175.070312 147.660156 C 172.433594 147.515625 172.433594 147.515625 169.875 146.234375 L 171.15625 142.402344 L 171.15625 144.957031 L 173.398438 144.328125 C 177.835938 143.328125 182.289062 143.546875 186.808594 143.601562 L 189.695312 143.617188 C 192.03125 143.636719 194.371094 143.65625 196.710938 143.679688 C 196.828125 142.25 196.828125 142.25 196.945312 140.785156 L 197.269531 136.972656 C 197.375 135.726562 197.476562 134.480469 197.585938 133.199219 C 197.925781 130.179688 198.441406 127.425781 199.265625 124.511719 M 1097.589844 -270.339844 L 1101.425781 -270.339844 L 1101.425781 -267.785156 C 1084.511719 -257.835938 1065.65625 -249.21875 1046.476562 -244.785156 L 1046.476562 -248.617188 L 1050.566406 -249.84375 C 1075.832031 -256.9375 1075.832031 -256.9375 1097.589844 -270.339844 M 541.730469 114.289062 L 543.007812 114.289062 C 543.257812 122.125 543.273438 128.597656 540.453125 136.011719 C 540.234375 139.527344 540.234375 139.527344 540.453125 142.402344 L 537.894531 142.402344 L 537.894531 144.957031 L 540.386719 144.324219 C 545.46875 143.484375 550.402344 143.546875 555.546875 143.601562 L 558.597656 143.617188 C 561.066406 143.636719 563.539062 143.65625 566.007812 143.679688 L 564.730469 147.515625 L 537.894531 147.515625 C 536.785156 141.953125 536.554688 139.84375 537.609375 134.632812 L 538.324219 131.023438 L 539.09375 127.308594 L 539.847656 123.515625 C 540.464844 120.441406 541.09375 117.363281 541.730469 114.289062 " fill-opacity="1" fill-rule="nonzero"/></g><path fill="#035114" d="M 284.882812 61.898438 L 287.4375 61.898438 C 287.050781 69.867188 285.679688 76.03125 281.867188 83.078125 C 277.476562 89.570312 271.871094 94.472656 264.972656 98.167969 C 262.28125 99.390625 259.546875 100.503906 256.769531 101.511719 L 254.214844 98.957031 L 257.300781 97.59375 C 267.628906 92.8125 267.628906 92.8125 275.628906 84.976562 C 280 77.730469 283.476562 70.269531 284.882812 61.898438 " fill-opacity="1" fill-rule="nonzero"/><path fill="#015e1b" d="M 618.398438 129.625 C 619.757812 131.699219 619.757812 131.699219 620.957031 134.734375 L 619.675781 142.402344 L 645.234375 143.679688 L 643.957031 147.515625 L 617.121094 147.515625 C 615.863281 142.472656 615.949219 140.574219 617.042969 135.695312 L 617.796875 132.238281 Z M 618.398438 129.625 " fill-opacity="1" fill-rule="nonzero"/><path fill="#01621d" d="M 508.503906 133.457031 L 512.339844 133.457031 L 513.617188 146.234375 C 504.261719 147.207031 494.914062 148.078125 485.503906 147.515625 L 482.949219 146.234375 L 484.226562 141.125 L 484.226562 144.957031 L 505.949219 142.402344 Z M 508.503906 133.457031 " fill-opacity="1" fill-rule="nonzero"/><path fill="#035114" d="M 89.371094 58.066406 C 88.007812 61.132812 86.585938 63.457031 84.421875 66.050781 C 78.835938 73.277344 76.398438 79.65625 74.996094 88.734375 C 74.65625 91.285156 74.339844 93.84375 74.039062 96.398438 L 71.484375 96.398438 C 70.699219 86.363281 72.632812 78.757812 76.59375 69.566406 L 78.433594 65.09375 C 80.429688 61.898438 80.429688 61.898438 83.703125 59.503906 C 86.816406 58.066406 86.816406 58.066406 89.371094 58.066406 " fill-opacity="1" fill-rule="nonzero"/><path fill="#01621d" d="M 385.832031 73.398438 L 384.554688 82.34375 L 382 82.34375 L 382 75.953125 L 379.347656 75.976562 C 375.332031 76 371.316406 76.019531 367.304688 76.035156 L 363.128906 76.066406 C 355.660156 76.089844 348.496094 75.816406 341.109375 74.675781 L 341.109375 73.398438 C 346.164062 73.144531 351.222656 72.910156 356.28125 72.679688 L 360.574219 72.464844 C 369.132812 72.085938 377.339844 72.246094 385.832031 73.398438 M 660.570312 46.566406 L 663.125 46.566406 C 662.378906 55.695312 660.996094 64.574219 659.210938 73.558594 L 658.488281 77.261719 C 657.910156 80.234375 657.324219 83.207031 656.734375 86.175781 L 654.179688 86.175781 C 654.921875 77.042969 656.308594 68.167969 658.09375 59.183594 L 658.8125 55.480469 C 659.394531 52.507812 659.976562 49.535156 660.570312 46.566406 " fill-opacity="1" fill-rule="nonzero"/><path fill="#025114" d="M 125.660156 49.980469 C 128.109375 51.035156 128.109375 51.035156 131.542969 52.953125 L 131.542969 55.507812 L 128.109375 54.230469 C 120.875 52.1875 113.425781 52.332031 105.984375 52.953125 C 102.269531 53.902344 99.265625 55.164062 95.761719 56.789062 L 91.929688 58.066406 L 90.652344 55.507812 C 100.40625 48.308594 113.867188 46.675781 125.660156 49.980469 " fill-opacity="1" fill-rule="nonzero"/><path fill="#01631e" d="M 591.804688 47.761719 L 595.292969 47.796875 L 597.953125 47.84375 C 596.371094 49.703125 596.371094 49.703125 594.121094 51.675781 C 590.703125 52.53125 587.425781 52.664062 583.898438 52.953125 L 580.0625 72.121094 L 577.507812 72.121094 C 578.574219 54.8125 578.574219 54.8125 581.34375 49.121094 C 585.195312 47.835938 587.785156 47.710938 591.804688 47.761719 " fill-opacity="1" fill-rule="nonzero"/><path fill="#01621d" d="M 716.792969 72.121094 L 719.347656 72.121094 C 721.617188 81.878906 722.585938 91.519531 723.183594 101.511719 L 719.347656 100.234375 C 718.050781 96.753906 717.851562 93.28125 717.667969 89.59375 L 717.503906 86.496094 L 717.351562 83.300781 L 717.1875 80.046875 C 717.050781 77.40625 716.921875 74.765625 716.792969 72.121094 " fill-opacity="1" fill-rule="nonzero"/><path fill="#035114" d="M 518.726562 47.84375 L 554.507812 49.121094 L 554.507812 51.675781 L 518.726562 51.675781 Z M 518.726562 47.84375 " fill-opacity="1" fill-rule="nonzero"/><path fill="#01621d" d="M 186.488281 52.953125 L 187.765625 52.953125 L 186.488281 74.675781 L 183.933594 74.675781 L 184.253906 79.148438 C 184.3125 88.5625 181.296875 97.621094 178.820312 106.625 C 177.480469 103.070312 177.621094 100.863281 178.082031 97.023438 C 178.394531 95.242188 178.71875 93.464844 179.050781 91.6875 L 179.5625 88.824219 C 180.105469 85.808594 180.660156 82.800781 181.21875 79.789062 L 182.308594 73.707031 C 185.183594 57.789062 185.183594 57.789062 186.488281 52.953125 " fill-opacity="1" fill-rule="nonzero"/><path fill="#035114" d="M 649.066406 107.902344 L 651.625 107.902344 C 650.902344 119.609375 648.800781 130.925781 646.511719 142.402344 L 643.957031 142.402344 C 643.617188 134.667969 644.902344 127.667969 646.511719 120.121094 L 647.25 116.550781 C 647.847656 113.664062 648.453125 110.78125 649.066406 107.902344 " fill-opacity="1" fill-rule="nonzero"/><path fill="#01621d" d="M 817.742188 27.398438 L 831.800781 27.398438 L 830.519531 29.953125 L 827.644531 29.632812 C 824.097656 29.671875 824.097656 29.671875 821.535156 31.710938 C 817.765625 36.738281 817.191406 42.054688 816.144531 48.160156 L 815.476562 51.785156 C 814.9375 54.726562 814.414062 57.671875 813.910156 60.621094 L 812.632812 60.621094 C 813.417969 49.375 815.5625 38.4375 817.742188 27.398438 M 387.109375 142.402344 L 389.320312 143.035156 C 392.242188 143.6875 394.765625 143.828125 397.753906 143.804688 L 400.847656 143.792969 L 404.042969 143.761719 L 407.296875 143.742188 C 409.9375 143.726562 412.578125 143.707031 415.222656 143.679688 L 415.222656 147.515625 L 387.109375 147.515625 Z M 712.960938 38.898438 L 715.515625 38.898438 C 716.160156 43.023438 716.800781 47.148438 717.433594 51.277344 L 717.988281 54.808594 L 718.511719 58.238281 L 718.996094 61.382812 C 719.363281 64.5625 719.410156 67.644531 719.347656 70.84375 L 716.792969 70.84375 C 714.390625 60.113281 712.257812 49.96875 712.960938 38.898438 " fill-opacity="1" fill-rule="nonzero"/><path fill="#025215" d="M 327.050781 98.957031 L 329.605469 98.957031 C 328.953125 106.660156 328.238281 114.316406 327.050781 121.957031 L 339.828125 121.957031 L 339.828125 123.234375 L 324.496094 123.234375 C 323.058594 118.917969 323.613281 116.191406 324.46875 111.796875 L 325.054688 108.941406 L 325.625 106.035156 C 326.09375 103.675781 326.570312 101.316406 327.050781 98.957031 " fill-opacity="1" fill-rule="nonzero"/><path fill="#025516" d="M 167.320312 52.953125 C 167.230469 55.164062 167.230469 55.164062 166.042969 58.066406 C 163.226562 60.082031 160.300781 61.917969 157.257812 63.578125 L 154.785156 65.015625 C 152.636719 66.222656 150.398438 67.265625 148.152344 68.289062 L 144.320312 67.011719 C 148.804688 63.054688 152.617188 60.949219 158.375 59.34375 L 158.375 56.789062 C 163.980469 52.953125 163.980469 52.953125 167.320312 52.953125 " fill-opacity="1" fill-rule="nonzero"/><path fill="#01621d" d="M 293.828125 136.011719 L 295.105469 136.011719 L 295.105469 143.679688 L 310.441406 143.679688 L 311.71875 147.515625 L 293.828125 147.515625 C 292.390625 140.328125 292.390625 140.328125 293.828125 136.011719 " fill-opacity="1" fill-rule="nonzero"/><path fill="#035114" d="M 638.84375 26.117188 L 666.957031 26.117188 C 665.679688 38.898438 665.679688 38.898438 664.402344 44.007812 L 661.847656 44.007812 C 662.027344 41.71875 662.214844 39.429688 662.40625 37.140625 C 662.507812 35.863281 662.613281 34.589844 662.71875 33.277344 C 663.125 29.953125 663.125 29.953125 664.402344 27.398438 L 638.84375 27.398438 Z M 638.84375 26.117188 " fill-opacity="1" fill-rule="nonzero"/><path fill="#01621d" d="M 365.386719 121.957031 L 383.277344 121.957031 L 380.722656 139.847656 L 378.164062 139.847656 L 378.210938 137.511719 C 378.222656 136.488281 378.234375 135.46875 378.246094 134.417969 L 378.289062 131.363281 C 378.25 127.957031 378.25 127.957031 376.886719 123.234375 L 365.386719 123.234375 Z M 609.453125 27.398438 C 617.191406 27.148438 617.191406 27.148438 619.675781 27.398438 L 622.234375 29.953125 C 621.925781 32.4375 621.925781 32.4375 621.113281 35.222656 L 620.328125 38.027344 L 619.675781 40.175781 L 617.121094 40.175781 L 616.164062 36.5 L 614.566406 32.507812 C 612.007812 30.695312 612.007812 30.695312 609.453125 29.953125 Z M 609.453125 27.398438 " fill-opacity="1" fill-rule="nonzero"/><path fill="#035114" d="M 226.101562 101.511719 L 228.65625 104.066406 L 227.378906 107.902344 L 227.378906 105.34375 L 205.65625 105.34375 L 204.378906 102.789062 C 211.65625 101.847656 218.761719 101.125 226.101562 101.511719 " fill-opacity="1" fill-rule="nonzero"/><path fill="#01621d" d="M 252.9375 101.511719 L 256.769531 101.511719 C 257.628906 103.371094 258.480469 105.238281 259.324219 107.101562 L 260.761719 110.246094 C 261.882812 113.011719 261.882812 113.011719 261.882812 115.566406 C 258.847656 115.25 258.847656 115.25 255.492188 114.289062 C 253.816406 112.132812 253.816406 112.132812 252.9375 109.179688 C 252.777344 105.027344 252.777344 105.027344 252.9375 101.511719 " fill-opacity="1" fill-rule="nonzero"/><path fill="#025616" d="M 771.742188 26.117188 L 803.6875 26.117188 L 802.410156 32.507812 L 799.851562 33.785156 L 797.296875 31.230469 L 798.574219 27.398438 C 794.367188 27.574219 790.164062 27.761719 785.957031 27.957031 L 782.328125 28.109375 L 778.859375 28.269531 L 775.65625 28.410156 C 772.9375 28.523438 772.9375 28.523438 770.460938 29.953125 Z M 771.742188 26.117188 " fill-opacity="1" fill-rule="nonzero"/><path fill="#035114" d="M 764.074219 95.121094 L 766.628906 95.121094 C 764.625 102.746094 760.558594 108.960938 756.40625 115.566406 L 753.851562 113.011719 Z M 764.074219 95.121094 " fill-opacity="1" fill-rule="nonzero"/><g clip-path="url(#fbd837a1b8)"><path fill="#01621d" d="M 1147.425781 -306.121094 L 1149.980469 -306.121094 C 1148.703125 -302.285156 1148.703125 -302.285156 1145.640625 -299.394531 C 1144.382812 -298.375 1143.128906 -297.351562 1141.835938 -296.296875 L 1138.054688 -293.167969 L 1134.648438 -290.785156 L 1130.8125 -290.785156 C 1135.242188 -297.136719 1141.03125 -301.835938 1147.425781 -306.121094 M 279.769531 40.175781 L 282.328125 40.175781 C 287.253906 47.566406 287.253906 47.566406 287.777344 51.988281 C 287.761719 54.445312 287.609375 56.894531 287.4375 59.34375 L 284.882812 59.34375 L 284.089844 56.121094 L 283.046875 51.914062 L 282.011719 47.738281 C 281.351562 45.191406 280.605469 42.671875 279.769531 40.175781 " fill-opacity="1" fill-rule="nonzero"/></g><path fill="#01621d" d="M 636.289062 32.507812 L 637.566406 32.507812 C 639.242188 38.878906 638.347656 43.785156 636.894531 50.054688 C 636.160156 53.085938 636.160156 53.085938 636.289062 56.789062 L 633.734375 56.789062 L 632.457031 60.621094 C 633.078125 51.066406 634.160156 41.847656 636.289062 32.507812 M 626.066406 88.734375 L 627.34375 88.734375 C 628.394531 93.042969 628.726562 95.972656 627.664062 100.3125 L 626.9375 102.519531 C 624.976562 108.886719 623.699219 115.460938 622.234375 121.957031 L 620.957031 121.957031 C 621.972656 110.765625 624.050781 99.777344 626.066406 88.734375 " fill-opacity="1" fill-rule="nonzero"/><path fill="#035114" d="M 454.835938 73.398438 L 457.390625 73.398438 C 455.707031 79.296875 453.285156 83.75 449.722656 88.734375 L 445.890625 87.457031 C 447.320312 85.105469 448.757812 82.765625 450.203125 80.425781 L 452.628906 76.472656 Z M 454.835938 73.398438 " fill-opacity="1" fill-rule="nonzero"/><path fill="#016925" d="M 72.761719 38.898438 L 75.316406 40.175781 L 57.425781 58.066406 L 57.425781 54.230469 C 61.652344 48.296875 66.878906 43.175781 72.761719 38.898438 " fill-opacity="1" fill-rule="nonzero"/><path fill="#035114" d="M 751.296875 118.125 L 753.851562 118.125 C 752.046875 124.292969 749.46875 129.261719 746.183594 134.734375 L 743.628906 133.457031 C 745.308594 127.574219 747.578125 123 751.296875 118.125 " fill-opacity="1" fill-rule="nonzero"/><g clip-path="url(#97439fa027)"><path fill="#01621d" d="M 1107.8125 -132.332031 C 1112.15625 -130.453125 1115.03125 -128.015625 1118.355469 -124.667969 L 1121.089844 -121.949219 L 1123.148438 -119.554688 L 1123.148438 -117 C 1119.484375 -118.640625 1116.789062 -120.285156 1114.203125 -123.386719 L 1114.203125 -125.945312 L 1111.726562 -126.980469 L 1109.089844 -128.5 Z M 1082.257812 -159.167969 C 1087.460938 -157.109375 1090.902344 -153.371094 1094.714844 -149.425781 L 1096.675781 -147.425781 C 1098.265625 -145.808594 1099.847656 -144.183594 1101.425781 -142.554688 L 1097.589844 -142.554688 C 1091.648438 -146.914062 1086.710938 -152.015625 1082.257812 -157.890625 Z M 486.78125 26.117188 C 489.277344 26.988281 489.277344 26.988281 491.894531 28.675781 C 492.671875 31.71875 492.671875 31.71875 492.851562 35.222656 L 493.070312 38.746094 L 493.171875 41.453125 L 490.617188 41.453125 C 486.78125 28.164062 486.78125 28.164062 486.78125 26.117188 " fill-opacity="1" fill-rule="nonzero"/></g><g clip-path="url(#eb83528bc8)"><path fill="#01621d" d="M 505.949219 114.289062 L 508.503906 114.289062 C 508.9375 116.3125 509.363281 118.335938 509.78125 120.359375 L 510.503906 123.773438 C 511.0625 127.070312 511.0625 127.070312 511.0625 132.179688 L 508.503906 132.179688 C 506.796875 125.992188 505.625 120.761719 505.949219 114.289062 M 191.601562 27.398438 L 192.878906 29.953125 L 196.710938 31.230469 L 192.878906 33.785156 C 192.082031 37.28125 192.082031 37.28125 191.601562 41.453125 C 190.8125 44.878906 189.925781 48.273438 189.042969 51.675781 L 187.765625 51.675781 C 188.351562 43.304688 189.3125 35.480469 191.601562 27.398438 M 1064.367188 -178.335938 C 1069.574219 -176.277344 1073.011719 -172.535156 1076.824219 -168.59375 L 1078.785156 -166.59375 C 1080.375 -164.976562 1081.957031 -163.351562 1083.535156 -161.722656 L 1079.699219 -161.722656 C 1077.269531 -163.78125 1077.269531 -163.78125 1074.667969 -166.515625 L 1072.078125 -169.210938 L 1069.476562 -171.945312 L 1066.597656 -174.761719 L 1064.367188 -177.058594 Z M 1064.367188 -178.335938 " fill-opacity="1" fill-rule="nonzero"/></g><path fill="#035114" d="M 203.101562 106.625 L 205.65625 106.625 L 204.78125 115.109375 C 204.410156 117.898438 203.839844 120.523438 203.101562 123.234375 L 200.546875 123.234375 C 200.726562 120.945312 200.914062 118.65625 201.105469 116.367188 C 201.207031 115.089844 201.3125 113.816406 201.417969 112.503906 C 201.824219 109.179688 201.824219 109.179688 203.101562 106.625 " fill-opacity="1" fill-rule="nonzero"/><path fill="#01621d" d="M 839.464844 51.675781 L 842.023438 51.675781 C 840.789062 63.699219 840.789062 63.699219 839.464844 69.566406 L 836.910156 69.566406 C 837.09375 67.542969 837.28125 65.519531 837.46875 63.496094 C 837.574219 62.367188 837.675781 61.242188 837.785156 60.082031 C 838.132812 57.238281 838.691406 54.433594 839.464844 51.675781 M 491.894531 42.730469 L 494.449219 42.730469 L 497.003906 60.621094 L 494.449219 60.621094 C 492.414062 54.394531 491.621094 49.367188 491.894531 42.730469 " fill-opacity="1" fill-rule="nonzero"/><path fill="#01621d" d="M 174.988281 114.289062 L 176.265625 114.289062 C 176.300781 116.5 176.328125 118.710938 176.347656 120.917969 L 176.390625 124.648438 C 176.269531 128.195312 175.953125 131.316406 174.988281 134.734375 L 172.433594 136.011719 L 171.15625 139.847656 C 171.851562 131.242188 173.128906 122.722656 174.988281 114.289062 " fill-opacity="1" fill-rule="nonzero"/><path fill="#035114" d="M 463.78125 56.789062 L 467.613281 58.066406 L 465.058594 59.34375 L 463.859375 63.015625 C 462.503906 67.011719 462.503906 67.011719 460.425781 69.40625 L 458.667969 70.84375 L 457.390625 68.289062 C 458.664062 65.523438 458.664062 65.523438 460.507812 62.378906 L 462.339844 59.210938 Z M 776.851562 72.121094 L 779.40625 72.121094 C 777.800781 77.882812 775.695312 81.695312 771.742188 86.175781 L 770.460938 82.34375 C 771.644531 79.734375 771.644531 79.734375 773.417969 76.992188 L 775.160156 74.222656 Z M 785.796875 55.507812 L 788.351562 55.507812 C 786.746094 61.269531 784.640625 65.082031 780.6875 69.566406 C 780.6875 64.453125 780.6875 64.453125 781.804688 62 Z M 785.796875 55.507812 " fill-opacity="1" fill-rule="nonzero"/><path fill="#01621d" d="M 116.6875 24.761719 L 121.507812 24.796875 L 125.152344 24.839844 L 125.152344 26.117188 L 112.375 26.117188 L 112.375 28.675781 L 99.59375 27.398438 L 99.59375 26.117188 C 105.367188 24.992188 110.808594 24.707031 116.6875 24.761719 " fill-opacity="1" fill-rule="nonzero"/><g clip-path="url(#916519d9d2)"><path fill="#01621d" d="M 392.222656 26.117188 L 398.609375 26.117188 C 400.09375 30.5625 399.515625 33.09375 398.609375 37.621094 L 394.777344 36.339844 L 396.054688 28.675781 Z M 1174.261719 -60.773438 C 1178.371094 -58.976562 1181.0625 -56.808594 1184.164062 -53.585938 L 1186.542969 -51.140625 L 1188.316406 -49.273438 C 1184.484375 -49.273438 1184.484375 -49.273438 1181.289062 -50.710938 C 1178.09375 -53.105469 1178.09375 -53.105469 1175.777344 -57.179688 Z M 683.570312 37.621094 C 687.402344 42.730469 687.402344 42.730469 688.363281 46.40625 C 688.695312 50.558594 688.273438 54.003906 687.402344 58.066406 L 686.125 58.066406 Z M 1193.429688 -629.414062 L 1197.261719 -628.136719 C 1198.753906 -625.496094 1198.753906 -625.496094 1200.058594 -622.304688 L 1201.390625 -619.105469 L 1202.375 -616.636719 C 1199.957031 -617.582031 1199.957031 -617.582031 1197.261719 -619.191406 C 1195.925781 -621.675781 1195.925781 -621.675781 1195.027344 -624.460938 L 1194.089844 -627.265625 Z M 1175.539062 -656.25 L 1179.371094 -654.972656 C 1181.144531 -652.609375 1181.144531 -652.609375 1182.808594 -649.777344 L 1184.5 -646.941406 L 1185.761719 -644.75 C 1182.808594 -645.464844 1182.808594 -645.464844 1179.371094 -647.304688 C 1177.648438 -650.21875 1176.671875 -653.027344 1175.539062 -656.25 M 796.019531 36.339844 L 798.574219 36.339844 C 796.339844 43.6875 796.339844 43.6875 793.464844 46.566406 L 792.1875 42.730469 C 793.863281 39.296875 793.863281 39.296875 796.019531 36.339844 M 137.929688 28.675781 C 139.824219 29.25 141.714844 29.835938 143.601562 30.433594 L 146.792969 31.417969 L 149.429688 32.507812 L 150.710938 35.0625 C 148.816406 34.738281 146.925781 34.386719 145.039062 34.027344 L 141.847656 33.441406 L 139.207031 32.507812 Z M 137.929688 28.675781 " fill-opacity="1" fill-rule="nonzero"/></g></svg>